<?xml version="1.0" encoding="utf-8"?>
<!-- Generator: Adobe Illustrator 21.0.2, SVG Export Plug-In . SVG Version: 6.00 Build 0)  -->
<svg version="1.1" id="Layer_1" xmlns="http://www.w3.org/2000/svg" xmlns:xlink="http://www.w3.org/1999/xlink" x="0px" y="0px"
	 viewBox="0 0 1045 66" style="enable-background:new 0 0 1045 66;" xml:space="preserve">
<style type="text/css">
	.st0{fill:#FFFFFF;}
</style>
<path class="st0" d="M0.3,48.4c8.9,0.1,15.8-3,22.1-6.8c18-10.8,40.4,0,40.6,0.1c21.9,11,35,6.5,46.1-0.1c18-10.8,40.4,0,40.6,0.1
	c21.9,11,35,6.5,46-0.1c6.7-4,13.9-5,20.4-4.7c11,0.5,19.9,4.8,20,4.9c9.6,4.8,17.5,6.7,24.3,6.7c8.8,0,15.7-3.1,21.9-6.8
	c4.3-2.6,8.8-3.9,13.2-4.5c0.2,0,0.3,0,0.5-0.1c0.1,0,0.2,0,0.3,0c13.8-1.4,26.3,4.6,26.4,4.7c21.9,11,35,6.5,46.1-0.1
	c18-10.8,40.4,0,40.6,0.1c21.9,11,35,6.5,46-0.1c4.2-2.5,8.5-3.8,12.8-4.4l0,0c1.2-0.2,2.4-0.3,3.5-0.3c0.3,0,0.5,0,0.8,0
	c0.1,0,0.3,0,0.4,0c12.4-0.3,22.9,4.8,23,4.9c9.6,4.8,17.5,6.7,24.3,6.6c8.8,0,15.7-3.1,21.9-6.8c8.9-5.3,18.8-5.4,26.6-4.1
	c0.2,0,0.5,0.1,0.7,0.1c0.1,0,0.2,0,0.2,0c0.5,0.1,0.9,0.2,1.4,0.3c0.4,0.1,0.8,0.2,1.2,0.2c6.2,1.4,10.4,3.5,10.5,3.5
	c21.9,11,35,6.5,46.1-0.1c18-10.8,40.4,0,40.6,0.1c21.9,11,35,6.5,46-0.1c4.2-2.5,8.5-3.8,12.8-4.4l0,0c1.2-0.2,2.4-0.3,3.6-0.3
	c0.2,0,0.4,0,0.6,0c0.2,0,0.3,0,0.5,0c12.4-0.2,22.9,4.8,23,4.9c9.6,4.9,17.6,6.7,24.4,6.6c8.8,0,15.7-3.1,21.9-6.8
	c8.4-5,17.8-5.4,25.4-4.3c0,0,0.1,0,0.1,0c0.3,0,0.5,0.1,0.8,0.1c0.9,0.2,1.8,0.3,2.6,0.5c0.5,0.1,1,0.2,1.4,0.3
	c6.1,1.4,10.2,3.4,10.2,3.5c21.9,11,35,6.5,46.1-0.1c18-10.8,40.4,0,40.6,0.1c21.9,11,35,6.5,46-0.1c18-10.8,40.4,0,40.6,0.1
	c11.6,5.9,20.8,7.3,28.5,6.4V24.3v-16V2.3H0v5.9v16v24.1C0.1,48.4,0.2,48.4,0.3,48.4z"/>
</svg>
