<?xml version="1.0" encoding="utf-8"?>
<!-- Generator: Adobe Illustrator 21.0.2, SVG Export Plug-In . SVG Version: 6.00 Build 0)  -->
<svg version="1.1" id="Layer_1" xmlns="http://www.w3.org/2000/svg" xmlns:xlink="http://www.w3.org/1999/xlink" x="0px" y="0px"
	 viewBox="0 0 1045 66" style="enable-background:new 0 0 1045 66;" xml:space="preserve">
<style type="text/css">
	.st0{fill:#FFFFFF;}
</style>
<path class="st0" d="M1044.7,20.4c-8.9-0.1-15.8,3-22.1,6.8c-18,10.8-40.4,0-40.6-0.1c-21.9-11-35-6.5-46.1,0.1
	c-18,10.8-40.4,0-40.6-0.1c-21.9-11-35-6.5-46,0.1c-6.7,4-13.9,5-20.4,4.7c-11-0.5-19.9-4.8-20-4.9c-9.6-4.8-17.5-6.7-24.3-6.7
	c-8.8,0-15.7,3.1-21.9,6.8c-4.3,2.6-8.8,3.9-13.2,4.5c-0.2,0-0.3,0-0.5,0.1c-0.1,0-0.2,0-0.3,0c-13.8,1.4-26.3-4.6-26.4-4.7
	c-21.9-11-35-6.5-46.1,0.1c-18,10.8-40.4,0-40.6-0.1c-21.9-11-35-6.5-46,0.1c-4.2,2.5-8.5,3.8-12.8,4.4l0,0
	c-1.2,0.2-2.4,0.3-3.5,0.3c-0.3,0-0.5,0-0.8,0c-0.1,0-0.3,0-0.4,0c-12.4,0.3-22.9-4.8-23-4.9c-9.6-4.8-17.5-6.7-24.3-6.6
	c-8.8,0-15.7,3.1-21.9,6.8c-8.9,5.3-18.8,5.4-26.6,4.1c-0.2,0-0.5-0.1-0.7-0.1c-0.1,0-0.2,0-0.2,0c-0.5-0.1-0.9-0.2-1.4-0.3
	c-0.4-0.1-0.8-0.2-1.2-0.2c-6.2-1.4-10.4-3.5-10.5-3.5c-21.9-11-35-6.5-46.1,0.1c-18,10.8-40.4,0-40.6-0.1c-21.9-11-35-6.5-46,0.1
	c-4.2,2.5-8.5,3.8-12.8,4.4l0,0c-1.2,0.2-2.4,0.3-3.6,0.3c-0.2,0-0.4,0-0.6,0c-0.2,0-0.3,0-0.5,0c-12.4,0.2-22.9-4.8-23-4.9
	c-9.6-4.9-17.6-6.7-24.4-6.6c-8.8,0-15.7,3.1-21.9,6.8c-8.4,5-17.8,5.4-25.4,4.3c0,0-0.1,0-0.1,0c-0.3,0-0.5-0.1-0.8-0.1
	c-0.9-0.2-1.8-0.3-2.6-0.5c-0.5-0.1-1-0.2-1.4-0.3c-6.1-1.4-10.2-3.4-10.2-3.5c-21.9-11-35-6.5-46.1,0.1c-18,10.8-40.4,0-40.6-0.1
	c-21.9-11-35-6.5-46,0.1c-18,10.8-40.4,0-40.6-0.1C16.9,21.1,7.7,19.7,0,20.6v23.9v16v5.9h1045v-5.9v-16V20.4
	C1044.9,20.4,1044.8,20.4,1044.7,20.4z"/>
</svg>
