<svg id="Layer_1" data-name="Layer 1" xmlns="http://www.w3.org/2000/svg" viewBox="0 0 1045 66"><defs><style>.cls-1{fill:#fff;}</style></defs><title>wave_top</title><path class="cls-1" d="M1051.7,20.4c-9-.1-16,3-22.4,6.8-18.24,10.8-40.94,0-41.14-.1-22.19-11-35.47-6.5-46.72.1-18.24,10.8-40.94,0-41.14-.1-22.19-11-35.47-6.5-46.62.1A36.84,36.84,0,0,1,833,31.9,56.27,56.27,0,0,1,812.74,27C803,22.2,795,20.3,788.11,20.3c-8.92,0-15.91,3.1-22.19,6.8a34.77,34.77,0,0,1-13.38,4.5.92.92,0,0,0-.51.1h-.3c-14,1.4-26.65-4.6-26.75-4.7-22.19-11-35.47-6.5-46.72.1-18.24,10.8-40.94,0-41.14-.1-22.19-11-35.47-6.5-46.62.1a34.46,34.46,0,0,1-13,4.4h0a22.16,22.16,0,0,1-3.55.3h-1.22a55.4,55.4,0,0,1-23.31-4.9c-9.73-4.8-17.73-6.7-24.63-6.6-8.92,0-15.91,3.1-22.19,6.8-9,5.3-19.05,5.4-27,4.1-.2,0-.51-.1-.71-.1h-.2l-1.42-.3a5.15,5.15,0,0,0-1.22-.2,57.27,57.27,0,0,1-10.64-3.5c-22.19-11-35.47-6.5-46.72.1-18.24,10.8-40.94,0-41.14-.1-22.19-11-35.47-6.5-46.62.1a34.46,34.46,0,0,1-13,4.4h0a22.45,22.45,0,0,1-3.65.3h-1.11A57.22,57.22,0,0,1,286,27c-9.73-4.9-17.84-6.7-24.73-6.6-8.92,0-15.91,3.1-22.19,6.8-8.51,5-18,5.4-25.74,4.3h-.1c-.3,0-.51-.1-.81-.1-.91-.2-1.82-.3-2.63-.5-.51-.1-1-.2-1.42-.3A43.23,43.23,0,0,1,198,27.1c-22.19-11-35.47-6.5-46.72.1-18.24,10.8-40.94,0-41.14-.1-22.19-11-35.47-6.5-46.62.1-18.24,10.8-40.94,0-41.14-.1C10.13,21.1.8,19.7-7,20.6V66.4H1052v-46Z"/></svg>