<svg id="Layer_1" data-name="Layer 1" xmlns="http://www.w3.org/2000/svg" viewBox="0 0 1045 66"><defs><style>.cls-1{fill:#fff;}</style></defs><title>wave_top</title><path class="cls-1" d="M-5.7,46.4c9,.1,16-3,22.45-6.8,18.28-10.8,41,0,41.24.1,22.25,11,35.55,6.5,46.83-.1,18.28-10.8,41,0,41.24.1,22.25,11,35.55,6.5,46.73-.1a37,37,0,0,1,20.72-4.7,56.5,56.5,0,0,1,20.32,4.9c9.75,4.8,17.78,6.7,24.68,6.7,8.94,0,15.95-3.1,22.25-6.8a34.91,34.91,0,0,1,13.41-4.5.93.93,0,0,0,.51-.1h.3c14-1.4,26.72,4.6,26.82,4.7,22.25,11,35.55,6.5,46.83-.1,18.28-10.8,41,0,41.24.1,22.25,11,35.55,6.5,46.73-.1a34.59,34.59,0,0,1,13-4.4h0a22.27,22.27,0,0,1,3.56-.3h1.22a55.64,55.64,0,0,1,23.36,4.9c9.75,4.8,17.78,6.7,24.68,6.6,8.94,0,15.95-3.1,22.25-6.8,9-5.3,19.1-5.4,27-4.1.2,0,.51.1.71.1h.2L574,36a5.17,5.17,0,0,0,1.22.2,57.5,57.5,0,0,1,10.67,3.5c22.25,11,35.55,6.5,46.83-.1,18.28-10.8,41,0,41.24.1,22.25,11,35.55,6.5,46.73-.1a34.59,34.59,0,0,1,13-4.4h0a22.55,22.55,0,0,1,3.66-.3h1.12a57.46,57.46,0,0,1,23.36,4.9c9.75,4.9,17.88,6.7,24.79,6.6,8.94,0,15.95-3.1,22.25-6.8,8.53-5,18.08-5.4,25.8-4.3h.1c.3,0,.51.1.81.1.91.2,1.83.3,2.64.5.51.1,1,.2,1.42.3A43.4,43.4,0,0,1,850,39.7c22.25,11,35.55,6.5,46.83-.1,18.28-10.8,41,0,41.24.1,22.25,11,35.55,6.5,46.73-.1,18.28-10.8,41,0,41.24.1,11.78,5.9,21.13,7.3,29,6.4V.3H-6v46A.38.38,0,0,0-5.7,46.4Z"/></svg>