<?xml version="1.0" encoding="utf-8"?>
<!-- Generator: Adobe Illustrator 21.0.1, SVG Export Plug-In . SVG Version: 6.00 Build 0)  -->
<svg version="1.1" id="Layer_1" xmlns="http://www.w3.org/2000/svg" xmlns:xlink="http://www.w3.org/1999/xlink" x="0px" y="0px"
	 viewBox="0 0 298.4 87.2" style="enable-background:new 0 0 298.4 87.2;" xml:space="preserve">
<style type="text/css">
	.st0{fill:#FFFFFF;}
</style>
<g>
	<path class="st0" d="M78.4,36.7c-2,0-3.8,0.8-5.2,2.2s-2.2,3.2-2.2,5.2c0,2,0.8,3.8,2.2,5.2s3.2,2.2,5.2,2.2c2,0,3.8-0.8,5.2-2.2
		s2.2-3.2,2.2-5.2c0-2-0.8-3.8-2.2-5.2S80.3,36.7,78.4,36.7z"/>
	<path class="st0" d="M102.7,36.7c-2,0-3.8,0.8-5.2,2.2s-2.2,3.2-2.2,5.2c0,2,0.8,3.8,2.2,5.2s3.2,2.2,5.2,2.2c2,0,3.8-0.8,5.2-2.2
		c1.4-1.4,2.2-3.2,2.2-5.2c0-2-0.8-3.8-2.2-5.2C106.5,37.5,104.7,36.7,102.7,36.7z"/>
	<polygon class="st0" points="149.6,47.2 154.8,47.2 152.2,40.7 	"/>
	<path class="st0" d="M59.6,40.7c0.6-0.6,0.9-1.2,0.9-1.9c0-1-0.4-1.4-0.7-1.7c-0.8-0.6-2.4-0.7-3.5-0.7h-1.4v6.5
		c0.7-0.1,1.4-0.4,2.2-0.7C58.1,41.7,59,41.3,59.6,40.7z"/>
	<path class="st0" d="M59,44.6c-0.3,0.1-0.6,0.3-0.9,0.4c-1.2,0.5-2.4,0.8-3.2,1v5.7h1.4c1.8,0,3.3-0.3,4.2-0.9
		c0.9-0.6,1.3-1.3,1.3-2.4c0-1.1-0.4-2-1.1-2.7C60.2,45.2,59.7,44.9,59,44.6z"/>
	<path class="st0" d="M242.2,40.5c0-0.9-0.1-2.1-0.9-2.9c-0.7-0.7-1.7-1.1-3.1-1.1h-3v8.1h3c1.4,0,2.4-0.4,3.1-1.1
		C242.1,42.5,242.2,41.3,242.2,40.5z"/>
	<path class="st0" d="M11.8,6.7v73.7h274.7V6.7H11.8z M64.1,51.3c-0.5,0.8-1.1,1.5-1.9,2c-1.5,0.9-3.4,1.4-5.9,1.4h-1.9h-2.8V33.4
		h3.3h1.4c2.4,0,4.1,0.4,5.3,1.3c0.7,0.5,1.1,1.1,1.5,1.8c0.3,0.7,0.4,1.4,0.4,2.2c0,1.1-0.4,2.6-1.7,3.9c0.3,0.2,0.7,0.5,1,0.8
		c0.6,0.6,1.1,1.3,1.5,2.1c0.4,0.9,0.5,1.8,0.5,2.8C64.8,49.5,64.5,50.4,64.1,51.3z M88.2,48.2c-0.5,1.3-1.3,2.4-2.3,3.4
		c-1,1-2.1,1.7-3.4,2.3c-1.3,0.5-2.7,0.8-4.2,0.8c-1.4,0-2.8-0.3-4.1-0.8c-1.3-0.5-2.4-1.3-3.4-2.3c-1-1-1.7-2.1-2.3-3.4
		c-0.5-1.3-0.8-2.7-0.8-4.1c0-1.4,0.3-2.8,0.8-4.2c0.5-1.3,1.3-2.4,2.3-3.4c1-1,2.1-1.7,3.4-2.3c1.3-0.5,2.7-0.8,4.1-0.8
		c1.4,0,2.8,0.3,4.2,0.8c1.3,0.5,2.4,1.3,3.4,2.3c1,1,1.7,2.1,2.3,3.4c0.5,1.3,0.8,2.7,0.8,4.2C89,45.5,88.8,46.9,88.2,48.2z
		 M112.6,48.2c-0.5,1.3-1.3,2.4-2.3,3.4c-1,1-2.1,1.7-3.4,2.3c-1.3,0.5-2.7,0.8-4.2,0.8c-1.4,0-2.8-0.3-4.1-0.8
		c-1.3-0.5-2.4-1.3-3.4-2.3c-1-1-1.7-2.1-2.3-3.4c-0.5-1.3-0.8-2.7-0.8-4.1c0-1.4,0.3-2.8,0.8-4.2c0.5-1.3,1.3-2.4,2.3-3.4
		c1-1,2.1-1.7,3.4-2.3c1.3-0.5,2.7-0.8,4.1-0.8c1.4,0,2.8,0.3,4.2,0.8c1.3,0.5,2.4,1.3,3.4,2.3c1,1,1.7,2.1,2.3,3.4
		c0.5,1.3,0.8,2.7,0.8,4.2C113.4,45.5,113.1,46.9,112.6,48.2z M128.9,54.7l-8.4-9.6v9.6h-3.3V33.4h3.3v8.8l6.8-8.8h4.2l-7.8,10.2
		l9.4,11H128.9z M157.8,54.7l-1.8-4.6h-7.6l-1.8,4.6H143l9.3-22.3l9.2,22.3H157.8z M186.7,36.4h-5.9v18.3h-3.4V36.4h-5.9v-3h15.1
		V36.4z M207.7,48.2c-0.5,1.3-1.3,2.4-2.3,3.4c-1,1-2.1,1.7-3.4,2.3c-1.3,0.5-2.7,0.8-4.2,0.8c-1.4,0-2.8-0.3-4.1-0.8
		c-1.3-0.5-2.4-1.3-3.4-2.3c-1-1-1.8-2.1-2.3-3.4c-0.5-1.3-0.8-2.7-0.8-4.1c0-1.4,0.3-2.8,0.8-4.2c0.5-1.3,1.3-2.4,2.3-3.4
		c1-1,2.1-1.7,3.4-2.3c1.3-0.5,2.7-0.8,4.1-0.8c1.4,0,2.8,0.3,4.2,0.8c1.3,0.5,2.4,1.3,3.4,2.3c1,1,1.7,2.1,2.3,3.4
		c0.5,1.3,0.8,2.7,0.8,4.2C208.5,45.5,208.3,46.9,207.7,48.2z M227.7,47.5c0,1.2-0.3,2.3-0.7,3.2c-0.5,0.9-1.1,1.7-1.9,2.3
		c-1.4,1.1-3.3,1.7-5.3,1.7c-2,0-3.9-0.6-5.3-1.7c-0.8-0.6-1.5-1.4-1.9-2.3c-0.5-1-0.7-2.1-0.7-3.2V33.4h3.3v14.1
		c0,1.3,0.5,2.2,1.3,2.9c0.8,0.6,2,1,3.2,1c1.2,0,2.4-0.4,3.2-1c0.9-0.7,1.3-1.6,1.3-2.9V33.4h3.4V47.5z M243.1,54.7l-5.4-7.2h-2.4
		v7.2h-3.3V33.4h2.8h3.5c2.8,0,4.4,1.1,5.3,2.1c1.1,1.2,1.7,3,1.7,4.9c0,2-0.6,3.7-1.7,4.9c-0.5,0.6-1.3,1.2-2.5,1.6l5.7,7.7H243.1z
		"/>
	<path class="st0" d="M197.9,36.7c-2,0-3.8,0.8-5.2,2.2s-2.2,3.2-2.2,5.2c0,2,0.8,3.8,2.2,5.2s3.2,2.2,5.2,2.2c2,0,3.8-0.8,5.2-2.2
		s2.2-3.2,2.2-5.2c0-2-0.8-3.8-2.2-5.2S199.9,36.7,197.9,36.7z"/>
</g>
</svg>
