<?xml version="1.0" encoding="utf-8"?>
<!-- Generator: Adobe Illustrator 21.0.2, SVG Export Plug-In . SVG Version: 6.00 Build 0)  -->
<svg version="1.1" id="Capa_1" xmlns="http://www.w3.org/2000/svg" xmlns:xlink="http://www.w3.org/1999/xlink" x="0px" y="0px"
	 viewBox="0 0 129.5 123" style="enable-background:new 0 0 129.5 123;" xml:space="preserve">
<style type="text/css">
	.st0{fill:#FFFFFF;}
</style>
<g>
	<path class="st0" d="M92.3,96.2c-0.8-0.5-1.8-0.3-2.3,0.5c-5.6,8.5-15.1,13.6-25.3,13.6c-10.2,0-19.6-5.1-25.3-13.6
		c-0.5-0.8-1.5-1-2.3-0.5c-0.8,0.5-1,1.5-0.5,2.3c6.3,9.4,16.7,15,28,15c11.3,0,21.8-5.6,28-15C93.3,97.7,93.1,96.7,92.3,96.2z"/>
	<path class="st0" d="M101.7,33.5c-0.8-0.5-1.8-0.3-2.3,0.5c-0.5,0.8-0.3,1.8,0.5,2.3c8.5,5.6,13.6,15.1,13.6,25.3
		c0,10.2-5.1,19.6-13.6,25.3c-0.8,0.5-1,1.5-0.5,2.3c0.3,0.5,0.8,0.7,1.4,0.7c0.3,0,0.6-0.1,0.9-0.3c9.4-6.3,15-16.7,15-28
		C116.8,50.2,111.1,39.7,101.7,33.5z"/>
	<path class="st0" d="M37.2,26.8c0.8,0.5,1.8,0.3,2.3-0.5c5.6-8.5,15.1-13.6,25.3-13.6c10.2,0,19.6,5.1,25.3,13.6
		c0.3,0.5,0.8,0.7,1.4,0.7c0.3,0,0.6-0.1,0.9-0.3c0.8-0.5,1-1.5,0.5-2.3c-6.3-9.4-16.7-15-28-15c-11.3,0-21.8,5.6-28,15
		C36.2,25.3,36.4,26.3,37.2,26.8z"/>
	<path class="st0" d="M29.6,86.8c-8.5-5.6-13.6-15.1-13.6-25.3c0-10.2,5.1-19.6,13.6-25.3c0.8-0.5,1-1.5,0.5-2.3
		c-0.5-0.8-1.5-1-2.3-0.5c-9.4,6.3-15,16.7-15,28c0,11.3,5.6,21.8,15,28c0.3,0.2,0.6,0.3,0.9,0.3c0.5,0,1.1-0.3,1.4-0.7
		C30.6,88.3,30.4,87.3,29.6,86.8z"/>
	<path class="st0" d="M95.5,89.9c6.9-7.5,11.1-17.5,11.1-28.4s-4.2-21-11.1-28.4l1.2-1.2c0.6-0.6,0.6-1.7,0-2.3
		c-0.6-0.6-1.7-0.6-2.3,0l-1.2,1.2c-7.5-6.9-17.5-11.1-28.4-11.1s-21,4.2-28.4,11.1l-1.2-1.2c-0.6-0.6-1.7-0.6-2.3,0
		c-0.6,0.6-0.6,1.7,0,2.3l1.2,1.2c-6.9,7.5-11.1,17.5-11.1,28.4s4.2,21,11.1,28.4l-1.2,1.2c-0.6,0.6-0.6,1.7,0,2.3
		c0.3,0.3,0.7,0.5,1.2,0.5s0.8-0.2,1.2-0.5l1.2-1.2c7.5,6.9,17.5,11.1,28.4,11.1s21-4.2,28.4-11.1l1.2,1.2c0.3,0.3,0.7,0.5,1.2,0.5
		s0.8-0.2,1.2-0.5c0.6-0.6,0.6-1.7,0-2.3L95.5,89.9z M81,96.5l-5.3-12.9c4.8-2.4,8.8-6.3,11.1-11.1l12.9,5.3
		C95.9,86,89.3,92.7,81,96.5z M29.8,77.8l12.9-5.3c2.4,4.8,6.3,8.8,11.1,11.1l-5.3,12.9C40.2,92.7,33.6,86,29.8,77.8z M43.4,61.5
		c0-11.8,9.6-21.3,21.3-21.3s21.3,9.6,21.3,21.3s-9.6,21.3-21.3,21.3S43.4,73.3,43.4,61.5z M99.7,45.2l-12.9,5.3
		c-2.4-4.8-6.3-8.8-11.1-11.1L81,26.5C89.3,30.3,95.9,37,99.7,45.2z M101,74.7l-12.9-5.3c0.8-2.5,1.3-5.1,1.3-7.9
		c0-2.8-0.5-5.4-1.3-7.9l12.9-5.3c1.5,4.1,2.3,8.6,2.3,13.2S102.5,70.6,101,74.7z M78,25.2l-5.3,12.9c-2.5-0.8-5.1-1.3-7.9-1.3
		c-2.8,0-5.4,0.5-7.9,1.3l-1.4-3.4c-0.4-0.8-1.3-1.2-2.2-0.9c-0.8,0.4-1.2,1.3-0.9,2.2l1.4,3.4C49,41.8,45,45.7,42.7,50.5l-12.9-5.3
		c3.8-8.2,10.5-14.9,18.7-18.7l1.4,3.3c0.3,0.6,0.9,1,1.5,1c0.2,0,0.4,0,0.6-0.1c0.8-0.4,1.2-1.3,0.9-2.2l-1.4-3.3
		c4.1-1.5,8.6-2.3,13.2-2.3C69.4,22.9,73.8,23.7,78,25.2z M28.5,48.3l12.9,5.3c-0.8,2.5-1.3,5.1-1.3,7.9c0,2.8,0.5,5.4,1.3,7.9
		l-12.9,5.3c-1.5-4.1-2.3-8.6-2.3-13.2S27,52.4,28.5,48.3z M51.5,97.8l5.3-12.9c2.5,0.8,5.1,1.3,7.9,1.3c2.8,0,5.4-0.5,7.9-1.3
		L78,97.8c-4.1,1.5-8.6,2.3-13.2,2.3C60.1,100.1,55.7,99.3,51.5,97.8z"/>
</g>
</svg>
