<?xml version="1.0" encoding="utf-8"?>
<!-- Generator: Adobe Illustrator 21.0.2, SVG Export Plug-In . SVG Version: 6.00 Build 0)  -->
<svg version="1.1" id="Layer_1" xmlns="http://www.w3.org/2000/svg" xmlns:xlink="http://www.w3.org/1999/xlink" x="0px" y="0px"
	 viewBox="0 0 219.8 294.2" style="enable-background:new 0 0 219.8 294.2;" xml:space="preserve">
<style type="text/css">
	.st0{fill:#11132E;}
</style>
<g>
	<g>
		<g>
			<path class="st0" d="M149.8,46.5h-97c-0.3,0-0.7-0.3-1-0.7c0-0.3,0-0.7,0.3-1l50.5-40.2c0.3-0.3,1-0.3,1.3,0l46.5,40.2
				c0.3,0.3,0.3,0.7,0.3,1C150.5,46.2,150.2,46.5,149.8,46.5z M55.2,44.5h92L103,6.7L55.2,44.5z"/>
		</g>
		<path class="st0" d="M159.5,282.6H47.6c-0.3,0-0.7,0-0.7-0.3c-0.3-0.3-0.3-0.3-0.3-0.7L70.2,91.7V45.5c0-0.7,0.3-1,1-1
			c0.7,0,1,0.3,1,1V92L48.6,280.9h109.9L134.2,90.7V45.5c0-0.7,0.3-1,1-1c0.7,0,1,0.3,1,1v45.2l24.2,190.9c0,0.3,0,0.7-0.3,0.7
			S159.8,282.6,159.5,282.6z"/>
		<path class="st0" d="M135.2,90H71.1c-0.7,0-1-0.3-1-1c0-0.7,0.3-1,1-1h64.1c0.7,0,1,0.3,1,1C136.2,89.7,135.6,90,135.2,90z"/>
		<path class="st0" d="M144.9,68.8H58.2c-0.7,0-1-0.3-1-1c0-0.7,0.3-1,1-1h86.7c0.7,0,1,0.3,1,1C145.9,68.4,145.5,68.8,144.9,68.8z"
			/>
	</g>
</g>
</svg>
