<svg id="Layer_1" data-name="Layer 1" xmlns="http://www.w3.org/2000/svg" viewBox="0 0 251.7 150.5"><defs><style>.cls-1{fill:#151515;}</style></defs><title>Artboard 2</title><polygon class="cls-1" points="152.37 4.29 137.39 16.23 166.21 16.23 152.37 4.29"/><path class="cls-1" d="M166.21,16.51H137.39a.28.28,0,0,1-.17-.49l15-11.94a.28.28,0,0,1,.35,0L166.39,16a.28.28,0,0,1-.18.49Zm-28-.55h27.29l-13.1-11.3Z"/><path class="cls-1" d="M169.1,86.66H135.86a.28.28,0,0,1-.28-.31l7-56.37V16.23a.28.28,0,1,1,.55,0V30l-7,56.09h32.62L161.6,29.63V16.23a.28.28,0,1,1,.55,0V29.6l7.22,56.75a.28.28,0,0,1-.27.31Z"/><path class="cls-1" d="M161.88,29.46h-19a.28.28,0,0,1,0-.55h19a.28.28,0,0,1,0,.55Z"/><path class="cls-1" d="M139.36,59.2a.28.28,0,0,1-.15-.51l24-15.38a.28.28,0,1,1,.3.47l-24,15.38A.28.28,0,0,1,139.36,59.2Z"/><path class="cls-1" d="M138.43,68.93a.28.28,0,0,1-.15-.51l26-16.61a.28.28,0,1,1,.3.47l-26,16.61A.28.28,0,0,1,138.43,68.93Z"/><path class="cls-1" d="M164.76,23.17H139.05a.28.28,0,0,1,0-.55h25.71a.28.28,0,0,1,0,.55Z"/><path class="cls-1" d="M101,86.84h0a.28.28,0,0,1-.27-.28l.41-16.7a.28.28,0,1,1,.55,0l-.41,16.7A.28.28,0,0,1,101,86.84Z"/><path class="cls-1" d="M119.64,60.83h0L92,60.39a.28.28,0,1,1,0-.55l27.59.45a.28.28,0,0,1,0,.55Z"/><path class="cls-1" d="M101,86.84l-18.38-.59a.28.28,0,0,1-.27-.28V69.87a.28.28,0,0,1,.08-.19l9.38-9.76a.29.29,0,0,1,.4,0l9.3,9.68h25.91l-8-8.85a.28.28,0,0,1,.41-.37l8.45,9.31a.28.28,0,0,1,.07.18h0V85.74a.28.28,0,0,1-.27.28ZM82.94,85.71l18.1.58,26.77-.82V70.15H101.43a.28.28,0,0,1-.2-.08L92,60.51,82.94,70Z"/><path class="cls-1" d="M101.43,70.15H82.66a.28.28,0,1,1,0-.55h18.77a.28.28,0,0,1,0,.55Z"/><rect class="cls-1" x="114.04" y="75.38" width="3.28" height="10.66"/><path class="cls-1" d="M117.31,86.32H114a.28.28,0,0,1-.28-.28V75.38a.28.28,0,0,1,.28-.28h3.28a.28.28,0,0,1,.28.28V86A.28.28,0,0,1,117.31,86.32Zm-3-.55H117V75.66h-2.72Z"/><path class="cls-1" d="M15.91,119.7a9,9,0,0,1-1.25.67,7.88,7.88,0,0,1-3,.6,7.7,7.7,0,0,1-7.71-7.71,7.63,7.63,0,0,1,2.27-5.47,7.28,7.28,0,0,1,2.45-1.64,7.34,7.34,0,0,1,3-.6,7.51,7.51,0,0,1,3,.6l.33.15v2.85a5.31,5.31,0,1,0,.4,7.86,7.09,7.09,0,0,0,.52-.58Z"/><path class="cls-1" d="M29.21,121H26.8v-6.65H20.65V121H18.24V105.54h2.41v6.59H26.8v-6.59h2.41Z"/><path class="cls-1" d="M40.79,117.66H35.3L34,121H31.33L38,104.84,44.73,121H42.09Zm-.87-2.16L38,110.8l-1.87,4.7Z"/><path class="cls-1" d="M49.29,111.05V121H46.88V104.82l9.68,10.62v-9.89H59v16.13Z"/><path class="cls-1" d="M72.13,107.71H67.89V121H65.46V107.71H61.22v-2.16H72.13Z"/><path class="cls-1" d="M85.14,121H82.41l-3.89-5.22H76.76V121H74.35V105.54h4.57a4.9,4.9,0,0,1,3.85,1.54,5.72,5.72,0,0,1,0,7.13A4.32,4.32,0,0,1,81,115.4Zm-6.21-7.38a2.84,2.84,0,0,0,2.22-.83,3.59,3.59,0,0,0,0-4.22,2.83,2.83,0,0,0-2.22-.81H76.76v5.86Z"/><path class="cls-1" d="M92.79,112.9V121H90.37V112.9L85,105.54h2.81l3.82,5.28,3.82-5.28h2.78Z"/><path class="cls-1" d="M106.56,121V105.54H109V121Z"/><path class="cls-1" d="M120.26,117.87a4.47,4.47,0,0,1-3.47,3,4.76,4.76,0,0,1-.94.08,5,5,0,0,1-1.83-.33,6.1,6.1,0,0,1-2.56-2l1.91-1.5a3.44,3.44,0,0,0,1.52,1.21,2.37,2.37,0,0,0,1.41.12,2,2,0,0,0,1.62-1.29,1.81,1.81,0,0,0-.71-1.75c-.69-.64-1.81-1.75-1.89-1.83l-1.89-1.79a4.4,4.4,0,0,1-1.18-1.85,3.31,3.31,0,0,1,0-2,3.51,3.51,0,0,1,1.14-1.72,4,4,0,0,1,1.85-.87,4.1,4.1,0,0,1,2.29.17,5.2,5.2,0,0,1,2.1,1.56l-1.89,1.52a2.05,2.05,0,0,0-2-.87,1.41,1.41,0,0,0-1.12.89c-.08.29-.06.77.58,1.39l2.58,2.47c.37.37.83.81,1.16,1.12a4.61,4.61,0,0,1,1.35,2A3.65,3.65,0,0,1,120.26,117.87Z"/><path class="cls-1" d="M131.61,121h-8.85V105.54h2.41v13.24h6.44Z"/><path class="cls-1" d="M142.25,117.66h-5.49l-1.31,3.3h-2.66l6.71-16.13L146.2,121h-2.64Zm-.87-2.16-1.87-4.7-1.87,4.7Z"/><path class="cls-1" d="M150.75,111.05V121h-2.41V104.82L158,115.44v-9.89h2.43v16.13Z"/><path class="cls-1" d="M175,113.25a7.87,7.87,0,0,1-1.87,5.4,6.3,6.3,0,0,1-2.47,1.7,9.09,9.09,0,0,1-3.37.6h-3.66V105.54h3.66a8.68,8.68,0,0,1,3.37.6,6.3,6.3,0,0,1,2.47,1.7A7.87,7.87,0,0,1,175,113.25Zm-2.41,0a5.52,5.52,0,0,0-1.25-3.78,5.16,5.16,0,0,0-4.05-1.52h-1.25v10.6h1.25a5.23,5.23,0,0,0,4.05-1.52A5.56,5.56,0,0,0,172.63,113.25Z"/><path class="cls-1" d="M193.85,107.71h-4.24V121h-2.43V107.71h-4.24v-2.16h10.91Z"/><path class="cls-1" d="M199,120.36a7.7,7.7,0,0,1-4.72-7.11,7.89,7.89,0,0,1,.6-3,8.12,8.12,0,0,1,1.66-2.45,7.59,7.59,0,0,1,2.45-1.64,7.7,7.7,0,0,1,3-.6,7.88,7.88,0,0,1,3,.6,7.6,7.6,0,0,1,4.09,4.09,7.87,7.87,0,0,1,.6,3,7.69,7.69,0,0,1-.6,3,7.59,7.59,0,0,1-1.64,2.45,8.13,8.13,0,0,1-2.45,1.66,7.88,7.88,0,0,1-3,.6A7.7,7.7,0,0,1,199,120.36Zm-.75-10.85A5.27,5.27,0,1,0,202,108,5.27,5.27,0,0,0,198.24,109.51Z"/><path class="cls-1" d="M214,119.74a4.56,4.56,0,0,1-1.37-1.66,5.19,5.19,0,0,1-.52-2.35V105.54h2.41v10.18a2.51,2.51,0,0,0,1,2.1,3.85,3.85,0,0,0,2.35.73,3.94,3.94,0,0,0,2.35-.73,2.49,2.49,0,0,0,.94-2.1V105.54h2.43v10.18a5.49,5.49,0,0,1-.52,2.35,5,5,0,0,1-1.37,1.66,6.57,6.57,0,0,1-7.65,0Z"/><path class="cls-1" d="M237.41,121h-2.72l-3.89-5.22H229V121h-2.41V105.54h4.57a4.9,4.9,0,0,1,3.85,1.54,5.72,5.72,0,0,1,0,7.13,4.32,4.32,0,0,1-1.79,1.18Zm-6.21-7.38a2.84,2.84,0,0,0,2.22-.83,3.59,3.59,0,0,0,0-4.22,2.83,2.83,0,0,0-2.22-.81H229v5.86Z"/><path class="cls-1" d="M247.62,117.87a4.47,4.47,0,0,1-3.47,3,4.75,4.75,0,0,1-.94.08,5,5,0,0,1-1.83-.33,6.1,6.1,0,0,1-2.56-2l1.91-1.5a3.44,3.44,0,0,0,1.52,1.21,2.37,2.37,0,0,0,1.41.12,2,2,0,0,0,1.62-1.29,1.8,1.8,0,0,0-.71-1.75c-.69-.64-1.81-1.75-1.89-1.83l-1.89-1.79a4.4,4.4,0,0,1-1.18-1.85,3.29,3.29,0,0,1,0-2,3.51,3.51,0,0,1,1.14-1.72,4,4,0,0,1,1.85-.87,4.1,4.1,0,0,1,2.29.17,5.19,5.19,0,0,1,2.1,1.56l-1.89,1.52a2.05,2.05,0,0,0-2-.87,1.41,1.41,0,0,0-1.12.89c-.08.29-.06.77.58,1.39l2.58,2.47c.37.37.83.81,1.16,1.12a4.62,4.62,0,0,1,1.35,2A3.66,3.66,0,0,1,247.62,117.87Z"/><path class="cls-1" d="M39.75,137.7h1.3v.74H40v7h1v.71H38.41v-.71h.89v-5.56s0-.12,0-.22a1.47,1.47,0,0,1,0-.21l-.14.2-.16.22-.73,1-.87,1.13-.91,1.18-.87,1.12-1.17-1.53-.85-1.11-.59-.77-.4-.52-.28-.35-.21-.28L32,139.4c0,.07,0,.14,0,.21s0,.14,0,.22v5.56h.91v.71H30.24v-.71h1v-7h-1v-.74h1.3l.85,1.11,1,1.36,1.12,1.46,1.09,1.4,2.06-2.67Z"/><path class="cls-1" d="M43.23,145.39h1q.85-2,1.7-4l1.72-4,1.7,4,1.7,4h1v.71H49.49v-.71h.77q-.3-.7-.58-1.38t-.58-1.38h-3L45.51,144l-.59,1.38h.8v.71h-2.5Zm4.49-6.05-.12-.37a.38.38,0,0,0,0,.08.67.67,0,0,1,0,.12l0,.17-.19.45-.28.65-.31.75-.31.73h2.4Z"/><path class="cls-1" d="M54.14,145.39h.64v-7h-.64v-.74h2.52a3.33,3.33,0,0,1,.87.13,3.06,3.06,0,0,1,.88.4,2.38,2.38,0,0,1,.69.69,1.82,1.82,0,0,1,.28,1,2.34,2.34,0,0,1-.46,1.48,2.21,2.21,0,0,1-1.32.78l1.5,3.21h1.09v.71H58.63l-1.82-3.87H55.52v3.15h1.28v.71H54.14Zm1.38-3.89h1.14a2.7,2.7,0,0,0,1-.15,1.65,1.65,0,0,0,.61-.38,1.31,1.31,0,0,0,.31-.51,1.76,1.76,0,0,0,.09-.54,1.16,1.16,0,0,0-.15-.57,1.54,1.54,0,0,0-.41-.47,2.13,2.13,0,0,0-.62-.33,2.39,2.39,0,0,0-.78-.12H55.52Z"/><path class="cls-1" d="M62.35,145.39h.94v-7h-.94v-.74H65v.74H64v7h1v.71H62.35Z"/><path class="cls-1" d="M67.18,145.39h1v-7h-1v-.74h1.34l6.06,6.82.23.31,0-.38v-6h-.89v-.74h2.65v.74h-1v8l-6.4-7.1-.22-.3,0,.37v5.93h.91v.71H67.18Z"/><path class="cls-1" d="M78.71,145.39h.77v-7h-.77v-.74h5.85v1.85h-.75v-1.1H80.22v3.07h3.87v.71H80.22v3.17H84v-1.14h.74v1.85h-6Z"/><path class="cls-1" d="M97.39,137.7H100v.74H99.1v7H100v.71H97.39v-.71h1v-3.17H93.49v3.17h1v.71H91.81v-.71h.94v-7h-.94v-.74h2.65v.74h-1v3.07h4.86v-3.07h-1Z"/><path class="cls-1" d="M102.2,145.39H103v-7h-.77v-.74H108v1.85h-.75v-1.1h-3.59v3.07h3.87v.71h-3.87v3.17h3.76v-1.14h.74v1.85h-6Z"/><path class="cls-1" d="M110.37,145.39H111v-7h-.64v-.74h2.52a3.33,3.33,0,0,1,.86.13,3.08,3.08,0,0,1,.88.4,2.37,2.37,0,0,1,.69.69,1.82,1.82,0,0,1,.28,1,2.33,2.33,0,0,1-.46,1.48,2.21,2.21,0,0,1-1.32.78l1.5,3.21h1.09v.71h-1.56L113,142.24h-1.28v3.15H113v.71h-2.67Zm1.38-3.89h1.14a2.7,2.7,0,0,0,1-.15,1.65,1.65,0,0,0,.61-.38,1.32,1.32,0,0,0,.31-.51,1.73,1.73,0,0,0,.09-.54,1.16,1.16,0,0,0-.15-.57,1.54,1.54,0,0,0-.41-.47,2.13,2.13,0,0,0-.62-.33,2.38,2.38,0,0,0-.78-.12h-1.15Z"/><path class="cls-1" d="M118.59,145.39h.94v-7h-.94v-.74h2.65v.74h-1v7h1v.71h-2.65Z"/><path class="cls-1" d="M125.36,145.39h1v-7h-2.25v1.1h-.71V137.7h6.64v1.85h-.74v-1.1h-2.2v7H128v.71h-2.67Z"/><path class="cls-1" d="M132.23,145.39h1q.85-2,1.7-4l1.72-4,1.7,4,1.7,4h1v.71H138.5v-.71h.77q-.3-.7-.58-1.38t-.58-1.38h-3l-.59,1.38-.59,1.38h.8v.71h-2.5Zm4.49-6.05-.12-.37a.38.38,0,0,0,0,.08.67.67,0,0,1,0,.12l0,.17-.19.45-.28.65-.31.75-.31.73h2.4Z"/><path class="cls-1" d="M149.62,142.52v3.1a4.78,4.78,0,0,1-1,.44,4.07,4.07,0,0,1-1.16.16,4.18,4.18,0,0,1-1.67-.34,4.3,4.3,0,0,1-2.28-2.28,4.18,4.18,0,0,1-.34-1.67,4.23,4.23,0,0,1,.34-1.68,4.31,4.31,0,0,1,.92-1.37,4.42,4.42,0,0,1,1.36-.92,4.1,4.1,0,0,1,1.67-.34,4.2,4.2,0,0,1,1.16.16,4.49,4.49,0,0,1,1,.44l-.42.61a3.47,3.47,0,0,0-1.78-.47,3.39,3.39,0,0,0-1.37.28,3.55,3.55,0,0,0-1.12.77,3.73,3.73,0,0,0-.76,1.14,3.44,3.44,0,0,0-.28,1.38,3.5,3.5,0,0,0,.28,1.39,3.58,3.58,0,0,0,1.88,1.9,3.38,3.38,0,0,0,1.37.28,3.33,3.33,0,0,0,1.45-.32v-1.92h-1.49v-.74Z"/><path class="cls-1" d="M151.78,145.39h.77v-7h-.77v-.74h5.85v1.85h-.74v-1.1h-3.59v3.07h3.87v.71h-3.87v3.17H157v-1.14h.74v1.85h-6Z"/><path class="cls-1" d="M164.79,145.09v-1.33h.74v1.07a3,3,0,0,0,.78.47,2.67,2.67,0,0,0,1,.19,2.19,2.19,0,0,0,.69-.11,1.79,1.79,0,0,0,.58-.31,1.54,1.54,0,0,0,.41-.51,1.5,1.5,0,0,0,.16-.69,1.58,1.58,0,0,0-.29-1,2,2,0,0,0-.74-.56,6.16,6.16,0,0,0-1-.33,5.06,5.06,0,0,1-1-.35,2.18,2.18,0,0,1-.76-.61,1.84,1.84,0,0,1-.33-1.11,2.63,2.63,0,0,1,.1-.8,1.91,1.91,0,0,1,.38-.72,2.05,2.05,0,0,1,.71-.52,2.54,2.54,0,0,1,1.07-.2,4.69,4.69,0,0,1,1,.11,2.61,2.61,0,0,1,1.08.55v1.24h-.74v-.86a2.19,2.19,0,0,0-.56-.21,3.14,3.14,0,0,0-.75-.08,1.65,1.65,0,0,0-.67.13,1.32,1.32,0,0,0-.75.8,1.68,1.68,0,0,0-.1.57,1,1,0,0,0,.3.8,2.35,2.35,0,0,0,.75.45q.45.17,1,.32a4,4,0,0,1,1,.41,2.34,2.34,0,0,1,.76.73,2.28,2.28,0,0,1,.31,1.27,2.31,2.31,0,0,1-.2,1,2.22,2.22,0,0,1-.54.74,2.38,2.38,0,0,1-.8.47,2.9,2.9,0,0,1-1,.16,3.81,3.81,0,0,1-.88-.1,3.75,3.75,0,0,1-.75-.26,3.57,3.57,0,0,1-.6-.35A1.79,1.79,0,0,1,164.79,145.09Z"/><path class="cls-1" d="M171.94,141.91a4.23,4.23,0,0,1,.34-1.68,4.31,4.31,0,0,1,.92-1.37,4.41,4.41,0,0,1,1.36-.92,4.1,4.1,0,0,1,1.67-.34,4.15,4.15,0,0,1,1.68.34,4.34,4.34,0,0,1,2.29,2.29,4.15,4.15,0,0,1,.34,1.68,4.11,4.11,0,0,1-.34,1.67,4.42,4.42,0,0,1-.92,1.36,4.32,4.32,0,0,1-1.37.92,4.21,4.21,0,0,1-1.68.34,4.17,4.17,0,0,1-1.67-.34,4.3,4.3,0,0,1-2.28-2.28A4.18,4.18,0,0,1,171.94,141.91Zm.74,0a3.5,3.5,0,0,0,.28,1.39,3.57,3.57,0,0,0,1.89,1.9,3.53,3.53,0,0,0,2.76,0,3.62,3.62,0,0,0,1.9-1.9,3.54,3.54,0,0,0,0-2.77,3.7,3.7,0,0,0-.77-1.14,3.63,3.63,0,0,0-1.13-.77,3.4,3.4,0,0,0-1.38-.28,3.44,3.44,0,0,0-1.38.28,3.53,3.53,0,0,0-1.13.77,3.73,3.73,0,0,0-.76,1.14A3.44,3.44,0,0,0,172.68,141.92Z"/><path class="cls-1" d="M188.44,139.55v-.87a3.46,3.46,0,0,0-2.84,0,3.52,3.52,0,0,0-1.12.77,3.74,3.74,0,0,0-.76,1.14,3.59,3.59,0,0,0,0,2.77,3.57,3.57,0,0,0,1.88,1.9,3.39,3.39,0,0,0,1.37.28,3.43,3.43,0,0,0,.94-.13,3.65,3.65,0,0,0,.85-.37l.41.6a4.79,4.79,0,0,1-1,.44,4.06,4.06,0,0,1-1.16.16,4.18,4.18,0,0,1-1.67-.34,4.3,4.3,0,0,1-2.28-2.28,4.17,4.17,0,0,1-.34-1.67,4.21,4.21,0,0,1,.34-1.68,4.31,4.31,0,0,1,.92-1.37,4.42,4.42,0,0,1,1.36-.92,4.11,4.11,0,0,1,1.67-.34,4.21,4.21,0,0,1,1.16.16,4.5,4.5,0,0,1,1,.44v1.34Z"/><path class="cls-1" d="M191.34,145.39h.94v-7h-.94v-.74H194v.74h-1v7h1v.71h-2.65Z"/><path class="cls-1" d="M196.17,145.39h.77v-7h-.77v-.74H202v1.85h-.75v-1.1h-3.59v3.07h3.87v.71h-3.87v3.17h3.76v-1.14h.74v1.85h-6Z"/><path class="cls-1" d="M206.29,145.39h1v-7h-2.25v1.1h-.71V137.7H211v1.85h-.74v-1.1H208v7H209v.71h-2.67Z"/><path class="cls-1" d="M216,145.39h.84v-2.5l-1.33-2.22-1.33-2.23h-1.07v-.74h2.67v.74h-.68l1,1.71,1,1.71.13.35h0l.14-.35,2-3.42h-.66v-.74h2.67v.74h-1.08l-1.33,2.23-1.32,2.23v2.49h.9v.71H216Z"/></svg>