<?xml version="1.0" encoding="utf-8"?>
<!-- Generator: Adobe Illustrator 21.0.1, SVG Export Plug-In . SVG Version: 6.00 Build 0)  -->
<svg version="1.1" id="Layer_1" xmlns="http://www.w3.org/2000/svg" xmlns:xlink="http://www.w3.org/1999/xlink" x="0px" y="0px"
	 viewBox="0 0 251.7 150.5" style="enable-background:new 0 0 251.7 150.5;" xml:space="preserve">
<style type="text/css">
	.st0{fill:#C72127;}
	.st1{fill:#151515;}
	.st2{fill:#12152F;}
</style>
<g>
	<g>
		<g>
			<g>
				<polygon class="st0" points="152.7,3.3 137.5,15.4 166.8,15.4 				"/>
				<path class="st1" d="M166.8,15.7h-29.2c-0.1,0-0.2-0.1-0.3-0.2c0-0.1,0-0.2,0.1-0.3l15.2-12.1c0.1-0.1,0.3-0.1,0.4,0l14,12.1
					c0.1,0.1,0.1,0.2,0.1,0.3C167,15.6,166.9,15.7,166.8,15.7z M138.3,15.1H166L152.7,3.7L138.3,15.1z"/>
			</g>
			<path class="st1" d="M169.7,86.8H136c-0.1,0-0.2,0-0.2-0.1c-0.1-0.1-0.1-0.1-0.1-0.2l7.1-57.2V15.4c0-0.2,0.1-0.3,0.3-0.3
				s0.3,0.1,0.3,0.3v14l-7.1,56.9h33.1L162.1,29V15.4c0-0.2,0.1-0.3,0.3-0.3s0.3,0.1,0.3,0.3V29l7.3,57.5c0,0.1,0,0.2-0.1,0.2
				S169.8,86.8,169.7,86.8z"/>
			<path class="st1" d="M162.4,28.8h-19.3c-0.2,0-0.3-0.1-0.3-0.3s0.1-0.3,0.3-0.3h19.3c0.2,0,0.3,0.1,0.3,0.3
				S162.5,28.8,162.4,28.8z"/>
			<path class="st1" d="M139.5,59c-0.1,0-0.2,0-0.2-0.1c-0.1-0.1,0-0.3,0.1-0.4l24.3-15.6c0.1-0.1,0.3,0,0.4,0.1
				c0.1,0.1,0,0.3-0.1,0.4L139.7,59C139.6,59,139.6,59,139.5,59z"/>
			<path class="st1" d="M138.6,68.8c-0.1,0-0.2,0-0.2-0.1c-0.1-0.1,0-0.3,0.1-0.4l26.4-16.8c0.1-0.1,0.3,0,0.4,0.1
				c0.1,0.1,0,0.3-0.1,0.4l-26.4,16.8C138.7,68.8,138.7,68.8,138.6,68.8z"/>
			<path class="st1" d="M165.3,22.4h-26.1c-0.2,0-0.3-0.1-0.3-0.3s0.1-0.3,0.3-0.3h26.1c0.2,0,0.3,0.1,0.3,0.3
				S165.5,22.4,165.3,22.4z"/>
			<path class="st1" d="M100.7,87L100.7,87c-0.2,0-0.3-0.1-0.3-0.3l0.4-16.9c0-0.2,0.1-0.3,0.3-0.3c0.2,0,0.3,0.1,0.3,0.3L101,86.7
				C100.9,86.9,100.8,87,100.7,87z"/>
			<path class="st1" d="M119.5,60.6L119.5,60.6l-28-0.5c-0.2,0-0.3-0.1-0.3-0.3s0.1-0.3,0.3-0.3l0,0l28,0.5c0.2,0,0.3,0.1,0.3,0.3
				S119.7,60.6,119.5,60.6z"/>
			<path class="st1" d="M100.7,87L82,86.4c-0.2,0-0.3-0.1-0.3-0.3V69.8c0-0.1,0-0.1,0.1-0.2l9.5-9.9c0.1-0.1,0.3-0.1,0.4,0l9.4,9.8
				h26.3l-8.1-9c-0.1-0.1-0.1-0.3,0-0.4c0.1-0.1,0.3-0.1,0.4,0l8.6,9.4c0,0,0.1,0.1,0.1,0.2l0,0l0,0l0,0v16.1c0,0.2-0.1,0.3-0.3,0.3
				L100.7,87z M82.3,85.9l18.3,0.6l27.2-0.8V70.1h-26.7c-0.1,0-0.1,0-0.2-0.1l-9.3-9.7l-9.2,9.6v16H82.3z"/>
			<path class="st1" d="M101.1,70.1h-19c-0.2,0-0.3-0.1-0.3-0.3c0-0.2,0.1-0.3,0.3-0.3h19c0.2,0,0.3,0.1,0.3,0.3
				C101.4,69.9,101.2,70.1,101.1,70.1z"/>
			<g>
				<rect x="113.9" y="75.4" class="st0" width="3.3" height="10.8"/>
				<path class="st1" d="M117.2,86.5h-3.3c-0.2,0-0.3-0.1-0.3-0.3V75.4c0-0.2,0.1-0.3,0.3-0.3h3.3c0.2,0,0.3,0.1,0.3,0.3v10.8
					C117.5,86.3,117.3,86.5,117.2,86.5z M114.1,85.9h2.8V75.7h-2.8V85.9z"/>
			</g>
		</g>
	</g>
	<g>
		<path class="st2" d="M14.4,120.3c-0.4,0.3-0.8,0.5-1.3,0.7c-1,0.4-2,0.6-3.1,0.6s-2-0.2-3-0.6c-0.9-0.4-1.8-1-2.5-1.7
			s-1.3-1.5-1.7-2.5c-0.4-0.9-0.6-2-0.6-3c0-1.1,0.2-2.1,0.6-3.1c0.4-0.9,1-1.8,1.7-2.5s1.5-1.3,2.5-1.7c0.9-0.4,2-0.6,3-0.6
			s2.1,0.2,3.1,0.6c0.1,0,0.2,0.1,0.3,0.1v2.9c-0.9-0.8-2.1-1.2-3.4-1.2c-1.4,0-2.8,0.5-3.8,1.6c-1,1-1.6,2.4-1.6,3.8
			s0.6,2.8,1.6,3.8s2.4,1.6,3.8,1.6s2.8-0.6,3.8-1.6c0.2-0.2,0.4-0.4,0.5-0.6L14.4,120.3L14.4,120.3z"/>
		<path class="st2" d="M27.9,121.6h-2.4v-6.7h-6.2v6.7h-2.4V106h2.4v6.7h6.2V106h2.4V121.6z"/>
		<path class="st2" d="M39.6,118.3H34l-1.3,3.4H30l6.8-16.4l6.8,16.4h-2.7L39.6,118.3z M38.7,116.1l-1.9-4.8l-1.9,4.8H38.7z"/>
		<path class="st2" d="M48.2,111.6v10.1h-2.4v-16.4l9.8,10.8v-10h2.5v16.4L48.2,111.6z"/>
		<path class="st2" d="M71.4,108.2h-4.3v13.4h-2.5v-13.4h-4.3V106h11.1V108.2z"/>
		<path class="st2" d="M84.6,121.6h-2.8l-3.9-5.3h-1.8v5.3h-2.4V106h2.1h2.6c2.1,0,3.3,0.8,3.9,1.6c0.8,0.9,1.3,2.2,1.3,3.6
			s-0.4,2.7-1.3,3.6c-0.4,0.4-1,0.9-1.8,1.2L84.6,121.6z M78.3,114.1c1,0,1.8-0.3,2.3-0.8c0.6-0.6,0.7-1.5,0.7-2.1s-0.1-1.5-0.7-2.1
			c-0.5-0.5-1.2-0.8-2.3-0.8h-2.2v5.9L78.3,114.1L78.3,114.1z"/>
		<path class="st2" d="M92.3,113.4v8.2h-2.4v-8.2l-5.5-7.5h2.8l3.9,5.4L95,106h2.8L92.3,113.4z"/>
		<path class="st2" d="M106.3,121.6V106h2.4v15.6H106.3z"/>
		<path class="st2" d="M120.2,118.5c-0.4,1.5-1.8,2.7-3.5,3.1c-0.3,0.1-0.6,0.1-0.9,0.1c-0.6,0-1.3-0.1-1.9-0.3
			c-1-0.4-1.9-1.1-2.6-2l1.9-1.5c0.4,0.6,1,1,1.5,1.2s1,0.2,1.4,0.1c0.8-0.1,1.5-0.7,1.6-1.3c0.2-0.7-0.3-1.3-0.7-1.8
			c-0.7-0.7-1.8-1.8-1.9-1.9l-1.9-1.8c-0.6-0.6-1-1.2-1.2-1.9c-0.2-0.7-0.2-1.3,0-2s0.6-1.3,1.2-1.7c0.5-0.4,1.2-0.8,1.9-0.9
			c0.8-0.2,1.6-0.1,2.3,0.2c0.8,0.3,1.5,0.8,2.1,1.6l-1.9,1.5c-0.8-1-1.6-1-2.1-0.9s-1,0.5-1.1,0.9c-0.1,0.3-0.1,0.8,0.6,1.4
			l2.6,2.5c0.4,0.4,0.8,0.8,1.2,1.1c0.7,0.6,1.1,1.3,1.4,2C120.4,117,120.4,117.7,120.2,118.5z"/>
		<path class="st2" d="M131.7,121.6h-6.6h-2.4V106h2.4v13.4h6.5L131.7,121.6L131.7,121.6z"/>
		<path class="st2" d="M142.5,118.3h-5.6l-1.3,3.4h-2.7l6.8-16.4l6.8,16.4h-2.7L142.5,118.3z M141.6,116.1l-1.9-4.8l-1.9,4.8H141.6z
			"/>
		<path class="st2" d="M151.1,111.6v10.1h-2.4v-16.4l9.8,10.8v-10h2.5v16.4L151.1,111.6z"/>
		<path class="st2" d="M175.7,113.8c0,2.2-0.7,4.1-1.9,5.5c-0.7,0.8-1.5,1.3-2.5,1.7c-1,0.4-2.1,0.6-3.4,0.6H165h-0.8V106h2.4h1.3
			c1.3,0,2.4,0.2,3.4,0.6s1.8,1,2.5,1.7C175.1,109.7,175.7,111.6,175.7,113.8z M173.3,113.8c0-1.6-0.4-2.9-1.3-3.8
			c-0.9-1-2.3-1.5-4.1-1.5h-1.3v10.7h1.3c1.8,0,3.2-0.5,4.1-1.5C172.8,116.7,173.3,115.4,173.3,113.8z"/>
		<path class="st2" d="M194.8,108.2h-4.3v13.4H188v-13.4h-4.3V106h11.1V108.2z"/>
		<path class="st2" d="M200,121c-0.9-0.4-1.8-1-2.5-1.7s-1.3-1.5-1.7-2.5c-0.4-0.9-0.6-2-0.6-3c0-1.1,0.2-2.1,0.6-3.1
			c0.4-0.9,1-1.7,1.7-2.5c0.7-0.7,1.5-1.3,2.5-1.7c0.9-0.4,2-0.6,3-0.6s2.1,0.2,3.1,0.6c0.9,0.4,1.7,0.9,2.5,1.7
			c0.7,0.7,1.3,1.6,1.7,2.5c0.4,1,0.6,2,0.6,3.1s-0.2,2.1-0.6,3c-0.4,0.9-0.9,1.8-1.7,2.5c-0.7,0.7-1.6,1.3-2.5,1.7
			c-1,0.4-2,0.6-3.1,0.6S201,121.4,200,121z M199.3,110c-1,1-1.6,2.4-1.6,3.8s0.6,2.8,1.6,3.8s2.4,1.6,3.8,1.6
			c1.4,0,2.8-0.6,3.8-1.6s1.6-2.4,1.6-3.8s-0.6-2.8-1.6-3.8s-2.4-1.6-3.8-1.6C201.6,108.4,200.3,109,199.3,110z"/>
		<path class="st2" d="M215.2,120.4c-0.6-0.5-1.1-1-1.4-1.7c-0.4-0.7-0.5-1.5-0.5-2.4V106h2.4v10.3c0,0.9,0.3,1.6,1,2.1
			c0.6,0.5,1.5,0.7,2.4,0.7s1.8-0.3,2.4-0.7c0.6-0.5,0.9-1.2,0.9-2.1V106h2.5v10.3c0,0.9-0.2,1.7-0.5,2.4c-0.3,0.7-0.8,1.2-1.4,1.7
			c-1,0.8-2.4,1.2-3.9,1.2C217.7,121.6,216.3,121.2,215.2,120.4z"/>
		<path class="st2" d="M239,121.6h-2.8l-3.9-5.3h-1.8v5.3H228V106h2.1h2.6c2.1,0,3.3,0.8,3.9,1.6c0.8,0.9,1.3,2.2,1.3,3.6
			s-0.4,2.7-1.3,3.6c-0.4,0.4-1,0.9-1.8,1.2L239,121.6z M232.7,114.1c1,0,1.8-0.3,2.3-0.8c0.6-0.6,0.7-1.5,0.7-2.1s-0.1-1.5-0.7-2.1
			c-0.5-0.5-1.2-0.8-2.3-0.8h-2.2v5.9L232.7,114.1L232.7,114.1z"/>
		<path class="st2" d="M249.3,118.5c-0.4,1.5-1.8,2.7-3.5,3.1c-0.3,0.1-0.6,0.1-0.9,0.1c-0.6,0-1.3-0.1-1.9-0.3
			c-1-0.4-1.9-1.1-2.6-2l1.9-1.5c0.4,0.6,1,1,1.5,1.2s1,0.2,1.4,0.1c0.8-0.1,1.5-0.7,1.6-1.3c0.2-0.7-0.3-1.3-0.7-1.8
			c-0.7-0.7-1.8-1.8-1.9-1.9l-1.9-1.8c-0.6-0.6-1-1.2-1.2-1.9c-0.2-0.7-0.2-1.3,0-2s0.6-1.3,1.2-1.7c0.5-0.4,1.2-0.8,1.9-0.9
			c0.8-0.2,1.6-0.1,2.3,0.2c0.8,0.3,1.5,0.8,2.1,1.6l-1.9,1.5c-0.8-1-1.6-1-2.1-0.9s-1,0.5-1.1,0.9c-0.1,0.3-0.1,0.8,0.6,1.4
			l2.6,2.5c0.4,0.4,0.8,0.8,1.2,1.1c0.7,0.6,1.1,1.3,1.4,2C249.5,117,249.5,117.7,249.3,118.5z"/>
		<path class="st2" d="M38.5,138.6h1.3v0.8h-1v7.1h1v0.7h-2.7v-0.7H38v-5.6c0,0,0-0.1,0-0.2s0-0.2,0-0.2c0,0.1-0.1,0.1-0.1,0.2
			c-0.1,0.1-0.1,0.1-0.2,0.2c-0.2,0.3-0.5,0.6-0.7,1c-0.3,0.4-0.6,0.8-0.9,1.1s-0.6,0.8-0.9,1.2c-0.3,0.4-0.6,0.8-0.9,1.1
			c-0.5-0.6-0.8-1.1-1.2-1.5c-0.3-0.4-0.6-0.8-0.9-1.1c-0.2-0.3-0.4-0.6-0.6-0.8s-0.3-0.4-0.4-0.5s-0.2-0.3-0.3-0.4
			c-0.1-0.1-0.1-0.2-0.2-0.3l-0.2-0.3c0,0.1,0,0.1,0,0.2s0,0.1,0,0.2v5.6h0.9v0.7h-2.7v-0.7h1v-7.1h-1v-0.8H30
			c0.2,0.3,0.5,0.7,0.9,1.1c0.3,0.4,0.7,0.9,1.1,1.4s0.8,1,1.1,1.5c0.4,0.5,0.8,1,1.1,1.4c0.7-0.9,1.4-1.8,2.1-2.7
			C37.1,140.4,37.8,139.5,38.5,138.6z"/>
		<path class="st2" d="M42.1,146.4h1c0.6-1.4,1.2-2.7,1.7-4.1c0.6-1.4,1.2-2.7,1.7-4.1c0.6,1.4,1.2,2.7,1.7,4.1
			c0.6,1.4,1.1,2.7,1.7,4.1h1v0.7h-2.5v-0.7h0.8c-0.2-0.5-0.4-0.9-0.6-1.4c-0.2-0.5-0.4-0.9-0.6-1.4h-3c-0.2,0.5-0.4,0.9-0.6,1.4
			c-0.2,0.5-0.4,0.9-0.6,1.4h0.8v0.7h-2.5C42.1,147.1,42.1,146.4,42.1,146.4z M46.6,140.2l-0.1-0.4c0,0,0,0,0,0.1v0.1L46.6,140.2
			c-0.1,0.1-0.2,0.3-0.3,0.5c-0.1,0.2-0.2,0.4-0.3,0.7c-0.1,0.2-0.2,0.5-0.3,0.8s-0.2,0.5-0.3,0.7h2.4L46.6,140.2z"/>
		<path class="st2" d="M53.1,146.4h0.6v-7.1h-0.6v-0.8h2.6c0.3,0,0.6,0,0.9,0.1c0.3,0.1,0.6,0.2,0.9,0.4c0.3,0.2,0.5,0.4,0.7,0.7
			s0.3,0.6,0.3,1c0,0.6-0.2,1.1-0.5,1.5s-0.8,0.7-1.3,0.8l1.5,3.3h1.1v0.7h-1.6l-1.9-3.9c-0.1,0-0.2,0-0.3,0s-0.2,0-0.3,0h-0.8v3.2
			h1.3v0.7H53L53.1,146.4L53.1,146.4z M54.5,142.4h1.2c0.4,0,0.7,0,1-0.1s0.5-0.2,0.6-0.4c0.2-0.2,0.3-0.3,0.3-0.5
			c0.1-0.2,0.1-0.4,0.1-0.5c0-0.2-0.1-0.4-0.2-0.6c-0.1-0.2-0.2-0.3-0.4-0.5s-0.4-0.2-0.6-0.3c-0.2-0.1-0.5-0.1-0.8-0.1h-1.2
			C54.5,139.4,54.5,142.4,54.5,142.4z"/>
		<path class="st2" d="M61.5,146.4h0.9v-7.1h-0.9v-0.8h2.7v0.8h-1v7.1h1v0.7h-2.7C61.5,147.1,61.5,146.4,61.5,146.4z"/>
		<path class="st2" d="M66.4,146.4h1v-7.1h-1v-0.8h1.4l6.1,6.9l0.2,0.3v-0.4v-6.1h-0.9v-0.8h2.7v0.8h-1v8.2l-6.5-7.2l-0.2-0.3v0.4v6
			h0.9v0.7h-2.7V146.4z"/>
		<path class="st2" d="M78,146.4h0.8v-7.1H78v-0.8h6v1.9h-0.8v-1.1h-3.6v3.1h3.9v0.7h-3.9v3.2h3.8v-1.2h0.8v1.9H78V146.4z"/>
		<path class="st2" d="M97,138.6h2.7v0.8h-0.9v7.1h0.9v0.7H97v-0.7h1v-3.2h-5v3.2h1v0.7h-2.7v-0.7h0.9v-7.1h-0.9v-0.8H94v0.8h-1v3.1
			h5v-3.1h-1V138.6z"/>
		<path class="st2" d="M101.9,146.4h0.8v-7.1h-0.8v-0.8h5.9v1.9H107v-1.1h-3.6v3.1h3.9v0.7h-3.9v3.2h3.8v-1.2h0.8v1.9h-6.1
			C101.9,147,101.9,146.4,101.9,146.4z"/>
		<path class="st2" d="M110.2,146.4h0.6v-7.1h-0.6v-0.8h2.6c0.3,0,0.6,0,0.9,0.1s0.6,0.2,0.9,0.4s0.5,0.4,0.7,0.7s0.3,0.6,0.3,1
			c0,0.6-0.2,1.1-0.5,1.5s-0.8,0.7-1.3,0.8l1.5,3.3h1.1v0.7h-1.6l-1.9-3.9c-0.1,0-0.2,0-0.3,0c-0.1,0-0.2,0-0.3,0h-0.8v3.2h1.3v0.7
			h-2.7v-0.6H110.2z M111.6,142.4h1.2c0.4,0,0.7,0,1-0.1s0.5-0.2,0.6-0.4c0.2-0.2,0.3-0.3,0.3-0.5c0.1-0.2,0.1-0.4,0.1-0.5
			c0-0.2-0.1-0.4-0.2-0.6c-0.1-0.2-0.2-0.3-0.4-0.5c-0.2-0.1-0.4-0.2-0.6-0.3s-0.5-0.1-0.8-0.1h-1.2V142.4z"/>
		<path class="st2" d="M118.5,146.4h0.9v-7.1h-0.9v-0.8h2.7v0.8h-1v7.1h1v0.7h-2.7V146.4z"/>
		<path class="st2" d="M125.4,146.4h1v-7.1h-2.3v1.1h-0.7v-1.9h6.7v1.9h-0.8v-1.1h-2.2v7.1h0.9v0.7h-2.7L125.4,146.4L125.4,146.4z"
			/>
		<path class="st2" d="M132.3,146.4h1c0.6-1.4,1.2-2.7,1.7-4.1c0.6-1.4,1.2-2.7,1.7-4.1c0.6,1.4,1.2,2.7,1.7,4.1
			c0.6,1.4,1.1,2.7,1.7,4.1h1v0.7h-2.5v-0.7h0.8c-0.2-0.5-0.4-0.9-0.6-1.4c-0.2-0.5-0.4-0.9-0.6-1.4h-3c-0.2,0.5-0.4,0.9-0.6,1.4
			c-0.2,0.5-0.4,0.9-0.6,1.4h0.8v0.7h-2.5L132.3,146.4L132.3,146.4z M136.9,140.2l-0.1-0.4c0,0,0,0,0,0.1v0.1v0.2
			c0,0.1-0.1,0.3-0.2,0.5s-0.2,0.4-0.3,0.7c-0.1,0.2-0.2,0.5-0.3,0.8s-0.2,0.5-0.3,0.7h2.4L136.9,140.2z"/>
		<path class="st2" d="M149.9,143.5v3.1c-0.3,0.2-0.7,0.3-1,0.4c-0.4,0.1-0.8,0.2-1.2,0.2c-0.6,0-1.2-0.1-1.7-0.3s-1-0.5-1.4-0.9
			s-0.7-0.9-0.9-1.4s-0.3-1.1-0.3-1.7c0-0.6,0.1-1.2,0.3-1.7s0.5-1,0.9-1.4s0.9-0.7,1.4-0.9s1.1-0.3,1.7-0.3c0.4,0,0.8,0.1,1.2,0.2
			c0.4,0.1,0.7,0.3,1.1,0.5l-0.4,0.6c-0.5-0.3-1.1-0.5-1.8-0.5c-0.5,0-1,0.1-1.4,0.3s-0.8,0.5-1.1,0.8s-0.6,0.7-0.8,1.2
			c-0.2,0.4-0.3,0.9-0.3,1.4s0.1,1,0.3,1.4s0.4,0.8,0.8,1.1c0.3,0.3,0.7,0.6,1.1,0.8c0.4,0.2,0.9,0.3,1.4,0.3s1-0.1,1.5-0.3v-2h-1.5
			v-0.8h2.1V143.5z"/>
		<path class="st2" d="M152.1,146.4h0.8v-7.1h-0.8v-0.8h5.9v1.9h-0.8v-1.1h-3.6v3.1h3.9v0.7h-3.9v3.2h3.8v-1.2h0.8v1.9h-6.1
			L152.1,146.4L152.1,146.4z"/>
		<path class="st2" d="M165.3,146.1v-1.4h0.8v1.1c0.2,0.2,0.5,0.3,0.8,0.5c0.3,0.1,0.7,0.2,1.1,0.2c0.2,0,0.5,0,0.7-0.1
			s0.4-0.2,0.6-0.3c0.2-0.1,0.3-0.3,0.4-0.5c0.1-0.2,0.2-0.4,0.2-0.7c0-0.4-0.1-0.8-0.3-1s-0.5-0.4-0.8-0.6c-0.3-0.1-0.6-0.2-1-0.3
			s-0.7-0.2-1-0.4s-0.6-0.4-0.8-0.6c-0.2-0.3-0.3-0.6-0.3-1.1c0-0.3,0-0.5,0.1-0.8s0.2-0.5,0.4-0.7s0.4-0.4,0.7-0.5s0.7-0.2,1.1-0.2
			c0.3,0,0.6,0,1,0.1s0.7,0.3,1.1,0.6v1.3h-0.8v-0.9c-0.2-0.1-0.3-0.2-0.6-0.2c-0.2-0.1-0.5-0.1-0.8-0.1s-0.5,0-0.7,0.1
			s-0.4,0.2-0.5,0.3s-0.2,0.3-0.3,0.5s-0.1,0.4-0.1,0.6c0,0.4,0.1,0.6,0.3,0.8s0.5,0.3,0.8,0.5c0.3,0.1,0.6,0.2,1,0.3s0.7,0.2,1,0.4
			s0.6,0.4,0.8,0.7s0.3,0.7,0.3,1.3c0,0.4-0.1,0.7-0.2,1s-0.3,0.5-0.5,0.7s-0.5,0.4-0.8,0.5s-0.6,0.2-1,0.2c-0.3,0-0.6,0-0.9-0.1
			c-0.3-0.1-0.5-0.2-0.8-0.3c-0.2-0.1-0.4-0.2-0.6-0.4C165.6,146.3,165.4,146.2,165.3,146.1z"/>
		<path class="st2" d="M172.6,142.8c0-0.6,0.1-1.2,0.3-1.7s0.5-1,0.9-1.4s0.9-0.7,1.4-0.9s1.1-0.3,1.7-0.3c0.6,0,1.2,0.1,1.7,0.3
			s1,0.5,1.4,0.9s0.7,0.9,0.9,1.4s0.3,1.1,0.3,1.7c0,0.6-0.1,1.2-0.3,1.7s-0.5,1-0.9,1.4s-0.9,0.7-1.4,0.9s-1.1,0.3-1.7,0.3
			c-0.6,0-1.2-0.1-1.7-0.3s-1-0.5-1.4-0.9s-0.7-0.9-0.9-1.4C172.7,144,172.6,143.4,172.6,142.8z M173.3,142.9c0,0.5,0.1,1,0.3,1.4
			s0.4,0.8,0.8,1.1c0.3,0.3,0.7,0.6,1.1,0.8c0.4,0.2,0.9,0.3,1.4,0.3s1-0.1,1.4-0.3s0.8-0.4,1.2-0.8c0.3-0.3,0.6-0.7,0.8-1.1
			c0.2-0.4,0.3-0.9,0.3-1.4s-0.1-1-0.3-1.4s-0.5-0.8-0.8-1.2s-0.7-0.6-1.1-0.8c-0.4-0.2-0.9-0.3-1.4-0.3s-1,0.1-1.4,0.3
			s-0.8,0.5-1.1,0.8s-0.6,0.7-0.8,1.2S173.3,142.4,173.3,142.9z"/>
		<path class="st2" d="M189.3,140.4v-0.9c-0.5-0.2-1-0.3-1.5-0.3s-1,0.1-1.4,0.3s-0.8,0.5-1.1,0.8s-0.6,0.7-0.8,1.2
			s-0.3,0.9-0.3,1.4s0.1,1,0.3,1.4s0.4,0.8,0.8,1.1c0.3,0.3,0.7,0.6,1.1,0.8c0.4,0.2,0.9,0.3,1.4,0.3c0.3,0,0.6,0,0.9-0.1
			c0.3-0.1,0.6-0.2,0.9-0.4l0.4,0.6c-0.3,0.2-0.7,0.3-1,0.4c-0.4,0.1-0.8,0.2-1.2,0.2c-0.6,0-1.2-0.1-1.7-0.3s-1-0.5-1.4-0.9
			s-0.7-0.9-0.9-1.4s-0.3-1.1-0.3-1.7c0-0.6,0.1-1.2,0.3-1.7s0.5-1,0.9-1.4s0.9-0.7,1.4-0.9s1.1-0.3,1.7-0.3c0.4,0,0.8,0.1,1.2,0.2
			c0.4,0.1,0.7,0.3,1.1,0.5v1.4h-0.8V140.4z"/>
		<path class="st2" d="M192.3,146.4h0.9v-7.1h-0.9v-0.8h2.7v0.8h-1v7.1h1v0.7h-2.7V146.4z"/>
		<path class="st2" d="M197.2,146.4h0.8v-7.1h-0.8v-0.8h5.9v1.9h-0.8v-1.1h-3.6v3.1h3.9v0.7h-3.9v3.2h3.8v-1.2h0.8v1.9h-6.1
			L197.2,146.4L197.2,146.4z"/>
		<path class="st2" d="M207.4,146.4h1v-7.1h-2.3v1.1h-0.7v-1.9h6.7v1.9h-0.8v-1.1h-2.2v7.1h0.9v0.7h-2.7v-0.7H207.4z"/>
		<path class="st2" d="M217.3,146.4h0.9v-2.5c-0.5-0.8-0.9-1.5-1.4-2.3c-0.4-0.7-0.9-1.5-1.4-2.3h-1.1v-0.8h2.7v0.8h-0.7
			c0.4,0.6,0.7,1.2,1.1,1.7c0.3,0.6,0.7,1.2,1,1.7l0.1,0.4l0,0l0.1-0.4l2.1-3.5H220v-0.8h2.7v0.8h-1.1c-0.5,0.8-0.9,1.5-1.4,2.3
			c-0.4,0.7-0.9,1.5-1.3,2.3v2.5h0.9v0.7h-2.7v-0.6H217.3z"/>
	</g>
</g>
</svg>
