<svg id="Layer_1" data-name="Layer 1" xmlns="http://www.w3.org/2000/svg" viewBox="0 0 182 182"><defs><style>.cls-1{fill:#c72026;}</style></defs><title>try</title><polygon class="cls-1" points="127.9 85.3 104.7 100.2 103.8 106.9 128.7 91 127.9 85.3"/><rect class="cls-1" x="74" y="118.2" width="2.5" height="8.3"/><path class="cls-1" d="M62.2,127l8.8-.3v-10a1.54,1.54,0,0,1,1.5-1.5H78a1.54,1.54,0,0,1,1.5,1.5v9.8l8.4-.3V112.3H62.6Z"/><polygon class="cls-1" points="59.5 112.4 42.7 112.4 42.7 126.5 59.2 127 59.5 112.4"/><polygon class="cls-1" points="57.6 109.4 51.1 102.7 44.7 109.4 57.6 109.4"/><polygon class="cls-1" points="79.7 102.5 54.7 102.1 61.7 109.4 86 109.4 79.7 102.5"/><rect class="cls-1" x="108.6" y="55.4" width="17.2" height="4.1"/><polygon class="cls-1" points="127.5 82 125.9 69.2 108.5 69.2 105.1 96.3 127.5 82"/><polygon class="cls-1" points="103.3 110.7 101.3 126.9 133.2 126.9 129.1 94.3 103.3 110.7"/><path class="cls-1" d="M91,0a91,91,0,1,0,91,91A91,91,0,0,0,91,0Zm-.1,127.7a1.47,1.47,0,0,1-1.5,1.5l-28.7.9h0l-19.5-.6a1.54,1.54,0,0,1-1.5-1.5V110.9a.75.75,0,0,1,.1-.5h0c.1-.2.2-.3.3-.5h0l10-10.4h0a1.19,1.19,0,0,1,1.1-.4l29.3.5h0a4.33,4.33,0,0,1,.5.1h0a1.38,1.38,0,0,1,.4.3h0l9,9.9a1.78,1.78,0,0,1,.4,1v16.8Zm45.2,1.7a1.61,1.61,0,0,1-1.1.5H99.6a1.61,1.61,0,0,1-1.1-.5,1.75,1.75,0,0,1-.4-1.2l7.4-59.8v-6h-2.6a1.5,1.5,0,0,1,0-3h2.6V55.3h-4.3a1.5,1.5,0,0,1-1.4-1,1.57,1.57,0,0,1,.5-1.7l15.9-12.7a1.5,1.5,0,0,1,1.9,0l14.7,12.7a1.53,1.53,0,0,1,.4,1.7,1.5,1.5,0,0,1-1.4,1h-3.1v4.1h1.6a1.5,1.5,0,0,1,0,3h-1.6v5.5l7.7,60.2A1.81,1.81,0,0,1,136.1,129.4Z"/><polygon class="cls-1" points="127.8 52.4 117.1 43.2 105.5 52.4 127.8 52.4"/><rect class="cls-1" x="108.6" y="62.5" width="17.2" height="3.7"/></svg>