<?xml version="1.0" encoding="utf-8"?>
<!-- Generator: Adobe Illustrator 21.0.1, SVG Export Plug-In . SVG Version: 6.00 Build 0)  -->
<svg version="1.1" id="Layer_1" xmlns="http://www.w3.org/2000/svg" xmlns:xlink="http://www.w3.org/1999/xlink" x="0px" y="0px"
	 viewBox="0 0 610 30" style="enable-background:new 0 0 610 30;" xml:space="preserve">
<style type="text/css">
	.st0{fill:#C72026;}
</style>
<path class="st0" d="M457.6,28.7c-21,0-38.1-8.3-39.2-8.9c-32.6-16.4-50.6-8.7-64.9-0.1c-33.2,19.8-71.9,1-73.5,0.2
	c-32.5-16.5-50.5-8.8-64.8-0.2c-33.2,19.8-71.9,1-73.5,0.2c-32.6-16.5-50.6-8.8-64.9-0.2c-18.6,11.1-39.1,9.9-53.1,6.9
	C11.8,24,3.6,20,3.3,19.9l4-8.1l-2,4l2-4c0.1,0,7.5,3.7,18.3,6C38,20.5,56.1,21.6,72.2,12c17.6-10.5,38.6-17.8,73.5-0.2
	c0.3,0.2,36,17.4,64.8,0.2c17.6-10.5,38.6-17.8,73.5-0.2c0.3,0.2,36,17.4,64.8,0.2c17.7-10.5,38.7-17.8,73.6-0.2
	c0.3,0.2,36,17.4,64.8,0.2c17.6-10.5,38.6-17.8,73.5-0.2c0.2,0.1,21.7,10.5,44.7,7.2l1.3,8.9c-25.9,3.8-49-7.6-50-8.1
	c-32.6-16.5-50.5-8.7-64.9-0.2C480.5,26.5,468.5,28.7,457.6,28.7z"/>
</svg>
