<svg id="Layer_1" data-name="Layer 1" xmlns="http://www.w3.org/2000/svg" viewBox="0 0 256.25 70.85"><defs><style>.cls-1{fill:#fff;}</style></defs><title>Artboard 5</title><path class="cls-1" d="M65.8,31.2a4.15,4.15,0,0,0-.92-2.86,3.81,3.81,0,0,0-3-1.09H59v7.9h2.91a3.82,3.82,0,0,0,3-1.12A4.13,4.13,0,0,0,65.8,31.2Z"/><path class="cls-1" d="M136,31.2a4.15,4.15,0,0,0-.92-2.86,3.81,3.81,0,0,0-3-1.09h-2.91v7.9H132A3.82,3.82,0,0,0,135,34,4.13,4.13,0,0,0,136,31.2Z"/><polygon class="cls-1" points="41.58 37.73 46.62 37.73 44.1 31.4 41.58 37.73"/><path class="cls-1" d="M28.73,27.23H25.82v7.9h2.91a3.92,3.92,0,0,0,3-1.09,4.3,4.3,0,0,0,.92-2.86,4.27,4.27,0,0,0-.92-2.83A3.93,3.93,0,0,0,28.73,27.23Z"/><path class="cls-1" d="M174.95,27.56a7.17,7.17,0,1,0,5,2.1A7.1,7.1,0,0,0,174.95,27.56Z"/><path class="cls-1" d="M2.18,2.41v66H254.07v-66ZM28.73,38.06H25.82v7H22.57V24.32h6.16a6.7,6.7,0,0,1,5.18,2,7,7,0,0,1,1.68,4.82A6.92,6.92,0,0,1,33.91,36,6.61,6.61,0,0,1,28.73,38.06Zm20.83,7L47.8,40.64H40.41l-1.76,4.45H35.06l9-21.73,9,21.73Zm17,0-5.24-7H59v7H55.72V24.32h6.16a6.61,6.61,0,0,1,5.18,2.07,7,7,0,0,1,1.68,4.82A7,7,0,0,1,67.06,36a5.82,5.82,0,0,1-2.41,1.6l5.6,7.5ZM85.93,27.23H80.22V45.09H76.95V27.23H71.23V24.32h14.7ZM105.25,46,92.18,31.74V45.09H88.93V23.34l13,14.31V24.32h3.28Zm16.8-18.82h-9.21v5.54h7.59v2.94h-7.59v6.44h9.21v2.94H109.59V24.32h12.46Zm14.7,17.86-5.24-7h-2.38v7h-3.25V24.32H132a6.61,6.61,0,0,1,5.18,2.07,7,7,0,0,1,1.68,4.82A7,7,0,0,1,137.23,36a5.82,5.82,0,0,1-2.41,1.6l5.6,7.5Zm27.41,0H152.24V24.32h3.25V42.15h8.68Zm20.36-6.36a10.21,10.21,0,0,1-2.21,3.3,10.94,10.94,0,0,1-3.3,2.24,10.63,10.63,0,0,1-4.06.81A10.38,10.38,0,0,1,164.56,34.7a10.61,10.61,0,0,1,.81-4.06,11,11,0,0,1,2.24-3.3,10.22,10.22,0,0,1,3.3-2.21,10.37,10.37,0,0,1,4-.81,10.61,10.61,0,0,1,4.06.81,10.24,10.24,0,0,1,5.52,5.52,10.61,10.61,0,0,1,.81,4.06A10.36,10.36,0,0,1,184.52,38.74ZM205,37.25v5.63l-.73.5s0,0-.06,0a.22.22,0,0,1-.11.06s-.06.06-.08.06a.15.15,0,0,1-.11.06.4.4,0,0,1-.11.08l-.08.06s-.06,0-.08.06l-.14.06-.08.06a.21.21,0,0,1-.14.06l-.06.06h-.06a.66.66,0,0,1-.14.08l-.2.08,0,0a10.52,10.52,0,0,1-3.72.9h-.53a9.91,9.91,0,0,1-3.28-.53h0c-.11,0-.2-.08-.31-.11l-.42-.17a5.72,5.72,0,0,1-1-.5,9.17,9.17,0,0,1-2.3-1.74,10.3,10.3,0,0,1-2.24-3.3,10,10,0,0,1-.76-3c0-.34-.06-.7-.06-1v-.53a11,11,0,0,1,.81-3.53,10.63,10.63,0,0,1,2.24-3.3,9.79,9.79,0,0,1,3.3-2.21,9.9,9.9,0,0,1,4-.81h.53a.77.77,0,0,1,.25,0,10.21,10.21,0,0,1,3.5.87,0,0,0,0,0,0,0l.17.08h0v3.84a6.61,6.61,0,0,0-1.4-.9,8,8,0,0,0-1.29-.48.1.1,0,0,1-.08,0h-.08s-.06,0-.11,0a.09.09,0,0,1-.06,0c-.11,0-.25,0-.36-.06h-.06l-.11,0h-.06a.17.17,0,0,1-.11,0h-.25l-.08,0h-.45a7,7,0,0,0-3.67,1,.66.66,0,0,1-.14.08,6,6,0,0,0-1.23,1,4.26,4.26,0,0,0-.36.36,0,0,0,0,1,0,0,5.62,5.62,0,0,0-.36.5l-.06.06-.17.25a.21.21,0,0,0-.06.11,6.7,6.7,0,0,0-.87,2.13s0,0,0,.06c-.06.28-.11.56-.14.84v.31a1.83,1.83,0,0,0,0,.39,1.7,1.7,0,0,0,0,.36,7.25,7.25,0,0,0,.25,1.57,7.15,7.15,0,0,0,6.86,5.21h.2a.1.1,0,0,0,.08,0h.42s0,0,.06,0h.17l.62-.11s0,0,.06,0a.17.17,0,0,0,.11,0h.08a.1.1,0,0,1,.08,0,.17.17,0,0,1,.11,0,.1.1,0,0,0,.06,0,5.74,5.74,0,0,0,1.15-.45h0V37.25h-3.92V34.31H205Zm6.66,7.84h-3.25V24.32h3.25Zm20.63,1L219.27,31.74V45.09H216V23.34l13,14.31V24.32h3.28Z"/></svg>