<?xml version="1.0" encoding="utf-8"?>
<!-- Generator: Adobe Illustrator 21.0.1, SVG Export Plug-In . SVG Version: 6.00 Build 0)  -->
<svg version="1.1" id="Layer_1" xmlns="http://www.w3.org/2000/svg" xmlns:xlink="http://www.w3.org/1999/xlink" x="0px" y="0px"
	 viewBox="0 0 203.5 203.5" style="enable-background:new 0 0 203.5 203.5;" xml:space="preserve">
<style type="text/css">
	.st0{fill:#FFFFFF;}
</style>
<g>
	<path class="st0" d="M194.1,11.9h-39.3V6c0-3.3-2.7-6-6-6s-6,2.7-6,6v5.9h-35.1V6c0-3.3-2.7-6-6-6s-6,2.7-6,6v5.9H62.2V6
		c0-3.3-2.7-6-6-6s-6,2.7-6,6v5.9H9.4c-3.3,0-6,2.7-6,6v135.6c0,3.3,2.7,6,6,6h36.8c5.9,25.2,28.6,44.1,55.5,44.1
		s49.6-18.8,55.5-44.1h36.8c3.3,0,6-2.7,6-6V17.9C200.1,14.6,197.5,11.9,194.1,11.9L194.1,11.9z M50.2,23.9v5.4c0,3.3,2.7,6,6,6
		s6-2.7,6-6v-5.4h33.6v5.4c0,3.3,2.7,6,6,6s6-2.7,6-6v-5.4h35.1v5.4c0,3.3,2.7,6,6,6s6-2.7,6-6v-5.4h33.3v24.5H15.4V23.9H50.2z
		 M101.8,191.5c-24.8,0-45.1-20.2-45.1-45.1s20.2-45.1,45.1-45.1s45.1,20.2,45.1,45.1S126.6,191.5,101.8,191.5z M158.8,147.5
		c0-0.3,0-0.7,0-1c0-31.5-25.6-57.1-57.1-57.1S44.7,115,44.7,146.5c0,0.3,0,0.7,0,1H15.4v-87h172.7v87H158.8L158.8,147.5z"/>
	<path class="st0" d="M107.8,148v-29c0-3.3-2.7-6-6-6s-6,2.7-6,6v31.5c0,1.6,0.6,3.1,1.8,4.2l13.8,13.8c1.2,1.2,2.7,1.8,4.2,1.8
		c1.5,0,3.1-0.6,4.2-1.8c2.3-2.3,2.3-6.1,0-8.5L107.8,148L107.8,148z"/>
</g>
</svg>
