<?xml version="1.0" encoding="utf-8"?>
<!-- Generator: Adobe Illustrator 21.0.1, SVG Export Plug-In . SVG Version: 6.00 Build 0)  -->
<svg version="1.1" id="Layer_1" xmlns="http://www.w3.org/2000/svg" xmlns:xlink="http://www.w3.org/1999/xlink" x="0px" y="0px"
	 viewBox="0 0 754.9 131.5" style="enable-background:new 0 0 754.9 131.5;" xml:space="preserve">
<style type="text/css">
	.st0{fill:#151515;}
</style>
<path class="st0" d="M462.1,34c-21,0-38.1-8.3-39.2-8.9C390.3,8.7,372.3,16.4,358,25c-33.2,19.8-71.9,1-73.5,0.2
	C252,8.7,234,16.4,219.7,25c-33.2,19.8-71.9,1-73.5,0.2C113.6,8.7,95.6,16.4,81.3,25c-18.6,11.1-39.1,9.9-53.1,6.9
	c-11.9-2.6-20.1-6.6-20.4-6.7l4-8.1l-2,4l2-4c0.1,0,7.5,3.7,18.3,6c12.4,2.7,30.5,3.8,46.6-5.8c17.6-10.5,38.6-17.8,73.5-0.2
	c0.3,0.2,36,17.4,64.8,0.2c17.6-10.5,38.6-17.8,73.5-0.2c0.3,0.2,36,17.4,64.8,0.2C371,6.8,392-0.5,426.9,17.1
	c0.3,0.2,36,17.4,64.8,0.2c17.6-10.5,38.6-17.8,73.5-0.2c0.2,0.1,21.7,10.5,44.7,7.2l1.3,8.9c-25.9,3.8-49-7.6-50-8.1
	c-32.6-16.5-50.5-8.7-64.9-0.2C485,31.8,473,34,462.1,34z"/>
<path class="st0" d="M599.3,125.5c-21,0-38.1-8.3-39.2-8.9c-32.6-16.5-50.5-8.7-64.9-0.2c-11.3,6.8-23.3,9-34.3,9
	c-21,0-38.1-8.3-39.2-8.9c-32.6-16.5-50.5-8.7-64.9-0.2c-11.3,6.8-23.3,9-34.3,9c-21,0-38.1-8.3-39.2-8.9
	c-32.6-16.5-50.5-8.7-64.9-0.2c-18.6,11.1-39.1,9.9-53.1,6.9c-11.9-2.6-20.1-6.6-20.4-6.7l4-8.1c0.1,0,7.5,3.7,18.3,6
	c12.4,2.7,30.5,3.8,46.6-5.8c17.6-10.5,38.6-17.8,73.5-0.2c0.3,0.2,36,17.4,64.8,0.2c17.6-10.5,38.6-17.8,73.5-0.2
	c0.3,0.2,36,17.4,64.8,0.2c17.6-10.5,38.6-17.8,73.5-0.2c0.3,0.2,36,17.4,64.8,0.2c17.6-10.5,38.6-17.8,73.5-0.2
	c0.2,0.1,21.7,10.5,44.7,7.2l1.3,8.9c-25.9,3.8-49-7.6-50-8.1c-32.6-16.5-50.5-8.7-64.9-0.2C622.2,123.2,610.2,125.5,599.3,125.5z"
	/>
</svg>
