<svg id="Layer_1" data-name="Layer 1" xmlns="http://www.w3.org/2000/svg" viewBox="0 0 236.65 57.25"><defs><style>.cls-1{fill:#fff;}</style></defs><title>Artboard 7</title><path class="cls-1" d="M55.65,23.67a7.56,7.56,0,0,0-2.36-1.61,7.36,7.36,0,0,0-5.78,0,7.54,7.54,0,0,0-4,4,7.6,7.6,0,0,0,0,5.83,7.39,7.39,0,0,0,1.59,2.36,7.68,7.68,0,0,0,2.36,1.6,7.36,7.36,0,0,0,5.78,0,7.69,7.69,0,0,0,2.36-1.6,7.39,7.39,0,0,0,1.59-2.36,7.6,7.6,0,0,0,0-5.83A7.57,7.57,0,0,0,55.65,23.67Z"/><path class="cls-1" d="M119.47,23.6a.84.84,0,0,0-.05.19,2.39,2.39,0,0,1-.08.3q-.05.19-.13.4-.35.78-.65,1.54t-.57,1.4l-.54,1.35h4.11l-1.82-4.29Z"/><path class="cls-1" d="M76.87,23.67a7.56,7.56,0,0,0-2.36-1.61,7.36,7.36,0,0,0-5.78,0,7.54,7.54,0,0,0-4,4,7.6,7.6,0,0,0,0,5.83,7.39,7.39,0,0,0,1.59,2.36,7.68,7.68,0,0,0,2.36,1.6,7.36,7.36,0,0,0,5.78,0,7.69,7.69,0,0,0,2.36-1.6,7.39,7.39,0,0,0,1.59-2.36,7.6,7.6,0,0,0,0-5.83A7.57,7.57,0,0,0,76.87,23.67Z"/><path class="cls-1" d="M170.91,23.67a7.56,7.56,0,0,0-2.36-1.61,7.36,7.36,0,0,0-5.78,0,7.54,7.54,0,0,0-4,4,7.6,7.6,0,0,0,0,5.83,7.39,7.39,0,0,0,1.59,2.36,7.68,7.68,0,0,0,2.36,1.6,7.36,7.36,0,0,0,5.78,0,7.69,7.69,0,0,0,2.36-1.6,7.39,7.39,0,0,0,1.59-2.36,7.6,7.6,0,0,0,0-5.83A7.57,7.57,0,0,0,170.91,23.67Z"/><path class="cls-1" d="M35,26.92a3.1,3.1,0,0,0,.93-2.35,2.56,2.56,0,0,0-1-2.27,4.36,4.36,0,0,0-2.54-.67H29.55v6.18h2.92A3.5,3.5,0,0,0,35,26.92Z"/><path class="cls-1" d="M2.15,1.82v53.6H234.5V1.82ZM38.33,35.66A4.67,4.67,0,0,1,37,37.17a6.23,6.23,0,0,1-2,.92,8.37,8.37,0,0,1-2.27.31H26.09V36.26h1.21V21.63H26.09V19.5h6.16a10.1,10.1,0,0,1,2.42.27,5.21,5.21,0,0,1,1.86.84,3.86,3.86,0,0,1,1.2,1.47,4.94,4.94,0,0,1,.43,2.15,5.42,5.42,0,0,1-.8,2.94A4,4,0,0,1,35,28.89a5.68,5.68,0,0,1,1.47.54,4.4,4.4,0,0,1,1.24,1,4.87,4.87,0,0,1,.85,1.38,4.56,4.56,0,0,1,.32,1.75A4.23,4.23,0,0,1,38.33,35.66Zm21-2.93a9.77,9.77,0,0,1-5.18,5.13,9.66,9.66,0,0,1-7.49,0,9.67,9.67,0,0,1-5.13-5.13,9.66,9.66,0,0,1,0-7.49,9.77,9.77,0,0,1,5.13-5.18,9.5,9.5,0,0,1,7.49,0,9.87,9.87,0,0,1,5.18,5.18,9.5,9.5,0,0,1,0,7.49Zm21.22,0a9.77,9.77,0,0,1-5.18,5.13,9.66,9.66,0,0,1-7.49,0,9.67,9.67,0,0,1-5.13-5.13,9.66,9.66,0,0,1,0-7.49,9.77,9.77,0,0,1,5.13-5.18,9.5,9.5,0,0,1,7.49,0,9.87,9.87,0,0,1,5.18,5.18,9.5,9.5,0,0,1,0,7.49ZM99.8,38.4h-6V36.26h1.4q-1.54-1.92-3-3.82l-3-3.85-1.67,1.59v6.08h2.21V38.4H83.17V36.26h2.08V21.63H83.17V19.5h6v2.13H87.49V26.9c0,.14,0,.29,0,.43s0,.29,0,.43l.51-.62,5.78-5.51h-1V19.5h6v2.13H96.46l-5.8,5.53,3.6,4.55,3.6,4.55H99.8Zm29.4,0h-6V36.26h1.5l-1.13-2.67-1.13-2.67h-6l-2.27,5.35h1.55V38.4h-6V36.26H112q1.86-4.45,3.74-8.82t3.74-8.82q1.86,4.45,3.74,8.82T127,36.26h2.23ZM154.1,23.66H152v-2h-4.19V36.26h2V38.4h-6.53V36.26h2.32V21.63H141.3v2h-2.13V19.5H154.1Zm20.45,9.07a9.77,9.77,0,0,1-5.18,5.13,9.66,9.66,0,0,1-7.49,0,9.67,9.67,0,0,1-5.13-5.13,9.66,9.66,0,0,1,0-7.49,9.77,9.77,0,0,1,5.13-5.18,9.5,9.5,0,0,1,7.49,0,9.87,9.87,0,0,1,5.18,5.18,9.5,9.5,0,0,1,0,7.49ZM195,21.63h-2.08V32.3A6.68,6.68,0,0,1,192.4,35,5.58,5.58,0,0,1,191,37a6.17,6.17,0,0,1-2.16,1.2,9.2,9.2,0,0,1-5.4,0,6.16,6.16,0,0,1-2.16-1.2,5.42,5.42,0,0,1-1.43-2,6.83,6.83,0,0,1-.51-2.73V21.63h-2.08V19.5h6.53v2.13h-2.21V32.21a4.63,4.63,0,0,0,.34,1.82,3.66,3.66,0,0,0,.95,1.34,4.14,4.14,0,0,0,1.44.82,6.09,6.09,0,0,0,3.67,0,4.16,4.16,0,0,0,1.44-.82,3.81,3.81,0,0,0,1-1.34,4.49,4.49,0,0,0,.35-1.82V21.63h-2.21V19.5H195ZM210.55,38.4h-3.94l-4-8.42h-2.29v6.29h3.08V38.4h-6.53V36.26h1.21V21.63h-1.21V19.5h5.67a8.36,8.36,0,0,1,2,.28,7.08,7.08,0,0,1,2.09.9,5.49,5.49,0,0,1,1.62,1.59,4.14,4.14,0,0,1,.65,2.35,5.52,5.52,0,0,1-1,3.39,4.83,4.83,0,0,1-3,1.8l3,6.45h2.54Z"/><path class="cls-1" d="M206.53,25.69a3.39,3.39,0,0,0,.19-1.08,2.24,2.24,0,0,0-.31-1.13,3.37,3.37,0,0,0-.84-1,4.05,4.05,0,0,0-1.27-.66,5.07,5.07,0,0,0-1.58-.24h-2.38v6.16h2.35a5.3,5.3,0,0,0,2-.31,3.63,3.63,0,0,0,1.23-.77A2.59,2.59,0,0,0,206.53,25.69Z"/><path class="cls-1" d="M35.23,30.72a4.48,4.48,0,0,0-1.42-.58,7.23,7.23,0,0,0-1.65-.19H29.55v6.32h3a6.22,6.22,0,0,0,1.57-.19,3.87,3.87,0,0,0,1.28-.58,3,3,0,0,0,.88-1,2.68,2.68,0,0,0,.32-1.35,2.75,2.75,0,0,0-.38-1.46A3.14,3.14,0,0,0,35.23,30.72Z"/></svg>