<?xml version="1.0" encoding="utf-8"?>
<!-- Generator: Adobe Illustrator 21.0.1, SVG Export Plug-In . SVG Version: 6.00 Build 0)  -->
<svg version="1.1" id="Layer_1" xmlns="http://www.w3.org/2000/svg" xmlns:xlink="http://www.w3.org/1999/xlink" x="0px" y="0px"
	 viewBox="0 0 421 217" style="enable-background:new 0 0 421 217;" xml:space="preserve">
<style type="text/css">
	.st0{fill:#FFFFFF;}
</style>
<g id="Layer_1_1_">
</g>
<g id="Layer_2">
	<g>
		<g>
			<path class="st0" d="M120.4,11.1c-22.1,0-40,17.9-40,40s17.9,40,40,40s40-17.9,40-40S142.5,11.1,120.4,11.1z M120.4,75.1
				c-13.2,0-24-10.8-24-24s10.8-24,24-24s24,10.8,24,24S133.7,75.1,120.4,75.1z"/>
			<path class="st0" d="M296.4,91.1c22.1,0,40-17.9,40-40s-17.9-40-40-40s-40,17.9-40,40S274.4,91.1,296.4,91.1z M296.4,27.1
				c13.2,0,24,10.8,24,24s-10.8,24-24,24s-24-10.8-24-24S283.2,27.1,296.4,27.1z"/>
			<polygon class="st0" points="152.4,147.8 152.4,207.1 168.4,207.1 168.4,154.4 208.4,114.4 248.4,154.4 248.4,207.1 264.4,207.1 
				264.4,147.8 208.4,91.8 			"/>
			<path class="st0" d="M383.5,55.1c-6.6,0-13,2.7-17.7,7.3L319.2,109c-14-7.7-31.6-7.7-45.6,0L227,62.4c-4.7-4.6-11.1-7.3-17.7-7.3
				h-1.9c-6.6,0-13,2.7-17.7,7.3L143.2,109c-14-7.7-31.6-7.7-45.6,0L51,62.4c-4.7-4.6-11.1-7.3-17.7-7.3c-13.8,0-25,11.2-25,25
				c0,6.6,2.7,13,7.3,17.7l56.7,56.7v52.7h16v-59.3L26.9,86.5c-1.7-1.7-2.6-4-2.6-6.3c0-4.9,4-9,9-9c2.4,0,4.7,1,6.3,2.6l56,56
				l5.5-4.2c11.3-8.5,26.9-8.5,38.2,0l5.5,4.2l56-56c1.7-1.7,4-2.6,6.4-2.6h1.9c2.4,0,4.7,1,6.3,2.6l56,56l5.5-4.2
				c11.3-8.5,26.9-8.5,38.2,0l5.5,4.2l56-56c1.7-1.7,4-2.6,6.4-2.6c4.9,0,9,4,9,9c0,2.4-1,4.7-2.6,6.3L328,147.9v59.3h16v-52.7
				l56.7-56.7c4.6-4.6,7.3-11.1,7.3-17.7C408.4,66.3,397.2,55.1,383.5,55.1z"/>
		</g>
	</g>
</g>
<g id="Layer_3">
</g>
</svg>
