<?xml version="1.0" encoding="utf-8"?>
<!-- Generator: Adobe Illustrator 21.0.2, SVG Export Plug-In . SVG Version: 6.00 Build 0)  -->
<svg version="1.1" id="Layer_1" xmlns="http://www.w3.org/2000/svg" xmlns:xlink="http://www.w3.org/1999/xlink" x="0px" y="0px"
	 viewBox="0 0 512 512" style="enable-background:new 0 0 512 512;" xml:space="preserve">
<style type="text/css">
	.st0{fill:#FFFFFF;}
</style>
<g>
	<g>
		<path class="st0" d="M386.3,0h-192c-9,0-17.6,3.9-23.6,10.7l-65.8,75.6c-8.1,9.4-10,22.2-4.9,33.5c5.1,11.3,16,18.3,28.4,18.3
			h88.1v349.4c0,13.5,11,24.5,24.5,24.5h48.2c13.5,0,24.5-11,24.5-24.5V138.1h72.6c15.7,0,28.5-12.8,28.5-28.5v-81
			C414.8,12.8,402,0,386.3,0z M293.3,487.5L293.3,487.5c0,2.2-1.8,4.1-4.1,4.1H241c-2.2,0-4.1-1.8-4.1-4.1V138.1h56.3L293.3,487.5
			L293.3,487.5z M394.4,109.6c0,4.5-3.7,8.1-8.1,8.1H128.5c-6.5,0-9.2-4.9-9.9-6.4c-0.7-1.5-2.6-6.7,1.7-11.6l65.8-75.6
			c2.1-2.4,5.1-3.7,8.2-3.7h192c4.5,0,8.1,3.7,8.1,8.1L394.4,109.6L394.4,109.6z"/>
	</g>
</g>
<g>
	<g>
		<path class="st0" d="M371.9,31.6h-55.6c-5.6,0-10.2,4.6-10.2,10.2S310.7,52,316.4,52h55.6c5.6,0,10.2-4.6,10.2-10.2
			C382.1,36.2,377.6,31.6,371.9,31.6z"/>
	</g>
</g>
<g>
	<g>
		<path class="st0" d="M283.7,31.6h-4.4c-5.6,0-10.2,4.6-10.2,10.2S273.7,52,279.3,52h4.4c5.6,0,10.2-4.6,10.2-10.2
			C293.9,36.2,289.3,31.6,283.7,31.6z"/>
	</g>
</g>
</svg>
