<?xml version="1.0" encoding="utf-8"?>
<!-- Generator: Adobe Illustrator 21.0.2, SVG Export Plug-In . SVG Version: 6.00 Build 0)  -->
<svg version="1.1" id="Capa_1" xmlns="http://www.w3.org/2000/svg" xmlns:xlink="http://www.w3.org/1999/xlink" x="0px" y="0px"
	 viewBox="0 0 599 482.3" style="enable-background:new 0 0 599 482.3;" xml:space="preserve">
<style type="text/css">
	.st0{fill:#11132E;}
	.st1{fill:none;stroke:#151515;stroke-width:6;stroke-linecap:round;stroke-linejoin:round;stroke-miterlimit:10;}
	.st2{fill:none;stroke:#151515;stroke-width:7;stroke-linecap:round;stroke-linejoin:round;stroke-miterlimit:10;}
	.st3{fill:none;stroke:#151515;stroke-width:5;stroke-linecap:round;stroke-linejoin:round;stroke-miterlimit:10;}
</style>
<g>
	<g>
		<path class="st0" d="M393,196.9c4.5,0.8,7.1,1.4,7.1,1.4c0.3,0.1,0.7,0.1,1,0.1c1.9,0,3.7-1.3,4.1-3.3c0.5-2.3-0.9-4.6-3.1-5.1
			c-0.1,0-2.9-0.7-7.6-1.5c-2.3-0.4-4.5,1.1-4.9,3.5S390.7,196.5,393,196.9z"/>
		<path class="st0" d="M335.5,186.2c-5.5,0.6-10.9,1.4-16.1,2.5c-2.3,0.5-3.8,2.7-3.3,5c0.4,2,2.2,3.4,4.2,3.4c0.3,0,0.6,0,0.9-0.1
			c4.9-1,10-1.8,15.2-2.3c2.3-0.2,4-2.3,3.8-4.7C339.9,187.6,337.8,185.9,335.5,186.2z"/>
		<path class="st0" d="M237,237.4c-4,3.3-8,6.7-12.1,10.1c-1.8,1.5-2.1,4.2-0.6,6c0.8,1,2.1,1.6,3.3,1.6c0.9,0,1.9-0.3,2.7-1
			c4.1-3.4,8.2-6.8,12.2-10.1l-2.7-3.3L237,237.4z"/>
		<path class="st0" d="M178.8,281.9c-4.5,2.9-8.9,5.6-13.3,8.1c-2,1.2-2.7,3.8-1.6,5.8c0.8,1.4,2.2,2.1,3.7,2.1
			c0.7,0,1.4-0.2,2.1-0.6c4.5-2.6,9.1-5.4,13.7-8.3c2-1.3,2.5-3.9,1.3-5.9C183.4,281.2,180.8,280.6,178.8,281.9z"/>
		<path class="st0" d="M265.9,214.1c-3.8,2.9-7.9,6.1-12.5,9.9c-1.8,1.5-2.1,4.2-0.6,6c0.8,1,2.1,1.6,3.3,1.6c0.9,0,1.9-0.3,2.7-0.9
			c4.6-3.7,8.6-6.9,12.3-9.7c1.9-1.4,2.2-4.1,0.8-6C270.4,213,267.8,212.7,265.9,214.1z"/>
		<path class="st0" d="M298.5,194.7c-5.2,2-10.2,4.4-14.9,7.1c-2,1.2-2.7,3.8-1.6,5.8c0.8,1.4,2.2,2.1,3.7,2.1
			c0.7,0,1.4-0.2,2.1-0.6c4.2-2.4,8.9-4.6,13.7-6.5c2.2-0.8,3.3-3.3,2.4-5.5C303.2,194.9,300.7,193.8,298.5,194.7z"/>
		<path class="st0" d="M113.2,312.2c-2.4,0.7-4.8,1.3-7.1,1.9c-2.3,0.6-3.7,2.9-3.1,5.1c0.5,1.9,2.2,3.3,4.1,3.3c0.3,0,0.7,0,1-0.1
			c2.5-0.6,4.9-1.2,7.4-1.9c2.3-0.6,3.6-3,3-5.2C117.8,312.9,115.4,311.5,113.2,312.2z"/>
		<path class="st0" d="M136.2,207.9c1.5-5.5-2.1-10.4-6-15.6c-1.3-1.8-2.7-3.7-4-5.7c-5.1-8.1-10.7-9.8-14.5-9.8
			c-11.2,0-19.4,14.1-19.4,20c0,6.8,9.3,22.8,24,22.8c3,0,6-0.7,8.9-1.9C129.3,216,134.8,213.1,136.2,207.9z M128,205.7
			c-0.1,0.4-0.9,2-6,4.3c-1.9,0.8-3.7,1.2-5.5,1.2c-9.5,0-15.5-11.5-15.5-14.3c0.1-2.5,5.6-11.5,10.9-11.5c3,0,5.6,3.2,7.3,5.8
			c1.4,2.3,3,4.4,4.3,6.2C125.7,200.5,128.4,204.1,128,205.7z"/>
		<path class="st0" d="M498.6,82.2c0,0-0.1,0-0.1,0L363.9,48.5c-0.6-0.2-1.3-0.2-2,0L219,81.2L90.6,48.9c-0.1,0-0.1,0-0.2,0
			c-3.5-0.7-6.8-1.1-10-1.1c-11.4,0-30.5,5.2-31,40.1v269.9c0,18.2,12.1,32.3,33.1,38.6c0.1,0,0.1,0,0.2,0.1l134.6,33.7
			c0.6,0.2,1.3,0.2,2,0l142.9-32.7l128.3,32.2c0.1,0,0.1,0,0.2,0c3.5,0.7,6.9,1.1,10,1.1c11.4,0,30.6-5.2,31-40l0-269.9
			C531.8,102.6,519.4,88.2,498.6,82.2z M523.3,390.7c-0.3,21-7.8,31.6-22.5,31.6c-2.5,0-5.3-0.3-8.2-0.9L363.4,389
			c-0.6-0.2-1.3-0.2-2,0l-142.9,32.7L85,388.2c-10.1-3.1-27-11.1-27-30.5V88c0.3-21,7.8-31.7,22.5-31.7c2.5,0,5.2,0.3,8.1,0.9
			l129.2,32.5c0.7,0.2,1.3,0.2,2,0L362.8,57l133.5,33.4c8.2,2.4,27,10,27,30.5L523.3,390.7z"/>
		<path class="st0" d="M495.5,103.1c-0.1,0-0.1,0-0.2-0.1L363.6,70.1c-0.6-0.2-1.3-0.2-2,0l-142.9,32.7L88.1,70.1
			c-0.1,0-0.2,0-0.3-0.1c-1.2-0.2-2.4-0.3-3.5-0.3c-5.1,0-13.8,2.4-13.8,18.2v269.9c0,11.9,10.6,15.9,15.1,17.7
			c0.2,0.1,0.3,0.1,0.5,0.2l131.6,32.9c0.6,0.2,1.3,0.2,2,0l142.9-32.7l130.6,32.7c0.1,0,0.2,0,0.3,0.1c1.2,0.2,2.4,0.3,3.5,0.3
			c5.1,0,13.8-2.4,13.8-18.2l0-269.9C510.8,107.8,499.2,104.2,495.5,103.1z M502.3,120.9l0,199.7c-8.7-7.8-23.7-15.6-41.5-17.8
			c-14.7-1.8-36.9-0.2-59.1,17.4c-11.2,8.9-23,10-34.8,6.8V194c1.9,0.1,3.7,0.2,5.6,0.4c0.1,0,0.2,0,0.3,0c2.2,0,4.1-1.7,4.2-3.9
			c0.2-2.3-1.6-4.4-3.9-4.6c-2.1-0.2-4.2-0.3-6.3-0.4V79.6l126.2,31.6C500.7,113.6,502.3,116.8,502.3,120.9z M358.4,366.6v1.5
			l-135.4,31v-0.6v-79.1c13.4-7.3,23.6-16.4,32-23.9c14.2-12.6,21.4-18.5,30.8-13.6c6.1,3.2,13.8,9.8,22.8,17.4
			c14.5,12.2,31.7,26.8,49.9,33.8L358.4,366.6L358.4,366.6z M314,292.8c-9.4-7.9-17.5-14.8-24.3-18.4c-15-7.9-26.8,2.6-40.4,14.8
			c-7.4,6.6-15.8,14.1-26.3,20.4V111v-0.5l135.4-31v105.6c-0.4,0-0.9,0-1.3,0c-2.3,0-4.3,1.9-4.3,4.2c0,2.3,1.9,4.3,4.2,4.3
			c0.5,0,0.9,0,1.4,0v130.3C342.8,317.2,327.6,304.3,314,292.8z M183.7,102.8l30.7,7.7v0.5v150.3c-1.5-1.8-4.1-2.1-5.9-0.7
			c-4.4,3.4-8.5,6.5-12.5,9.4c-1.9,1.4-2.3,4-0.9,5.9c0.8,1.1,2.1,1.7,3.4,1.7c0.9,0,1.7-0.3,2.5-0.8c4.1-3,8.3-6.1,12.7-9.6
			c0.3-0.2,0.5-0.4,0.7-0.7v47.6c-6.9,3.3-14.7,6.1-23.6,7.8c-12.6,2.4-21.4-0.3-26.9-8.2c-13.9-20.2-2.4-67.1,5.9-80.8
			c21.5-35,11-49.6-0.1-65.1c-3.4-4.8-7-9.8-9.6-15.5C150.4,131.1,183,103.3,183.7,102.8z M79,357.8V87.9c0-9.7,3.4-9.7,5.3-9.7
			c0.6,0,1.2,0.1,2,0.2l87.6,21.9c-9.8,9.5-31.4,33.8-21.3,55.6c3,6.5,6.8,11.8,10.5,16.9c10.2,14.3,18.3,25.6-0.2,55.7
			c-7.6,12.3-16.6,45.4-12.7,70.7c-0.9-0.2-1.9-0.2-2.9,0.2c-4.7,2.2-9.5,4.3-14.3,6.1c-2.2,0.8-3.3,3.3-2.4,5.5
			c0.7,1.7,2.3,2.7,4,2.7c0.5,0,1-0.1,1.5-0.3c4.9-1.9,9.9-4,14.8-6.3c0.3-0.2,0.6-0.4,0.9-0.6c1.3,4.4,3,8.5,5.4,12
			c5.1,7.4,15.4,15.5,35.4,11.7c8.1-1.5,15.4-3.9,22-6.8v75v0.5l-126-31.5C81.5,364.7,79,362.2,79,357.8z M497,400.4
			c-0.6,0-1.2-0.1-2-0.2l-128.2-32.1v-1.5v-30.9c3.9,0.9,7.8,1.4,11.7,1.4c9.5,0,19.1-3,28.4-10.4c19.9-15.8,39.7-17.2,52.8-15.6
			c18.3,2.2,34.5,11.7,40.6,19.5c0.5,0.7,1.2,1.2,2,1.4v58.5C502.3,400.4,498.9,400.4,497,400.4z"/>
	</g>
	<g>
		<polygon class="st1" points="442.4,116.1 418.3,135.3 464.8,135.3 		"/>
		<polyline class="st1" points="457.8,135.3 457.8,156.9 469.4,256.2 415.8,256.2 427.1,157.6 427.1,135.3 		"/>
		<line class="st2" x1="429.9" y1="156.2" x2="455" y2="156.2"/>
		<line class="st3" x1="422.6" y1="206.1" x2="460.9" y2="181.5"/>
		<line class="st3" x1="421" y1="224.3" x2="462.4" y2="197.8"/>
		<line class="st3" x1="421" y1="146.1" x2="462.4" y2="146.1"/>
	</g>
</g>
</svg>
