<?xml version="1.0" encoding="utf-8"?>
<!-- Generator: Adobe Illustrator 21.0.2, SVG Export Plug-In . SVG Version: 6.00 Build 0)  -->
<svg version="1.1" id="Layer_1" xmlns="http://www.w3.org/2000/svg" xmlns:xlink="http://www.w3.org/1999/xlink" x="0px" y="0px"
	 viewBox="0 0 512 512" style="enable-background:new 0 0 512 512;" xml:space="preserve">
<style type="text/css">
	.st0{fill:#11132E;}
	.st1{fill:#D2D5D3;stroke:#D4D4D4;stroke-width:4;stroke-linecap:round;stroke-linejoin:round;stroke-miterlimit:10;}
	.st2{fill:none;stroke:#D4D4D4;stroke-width:4;stroke-linecap:round;stroke-linejoin:round;stroke-miterlimit:10;}
</style>
<path class="st0" d="M460.3,0H51.7c-1.8,0-3.3,1.5-3.3,3.3v497c0,5.1,5.6,8.2,9.9,5.5l195.9-123.2c1.1-0.7,2.4-0.7,3.5,0
	l200.8,126.3c2.2,1.4,5-0.2,5-2.8V3.3C463.5,1.5,462.1,0,460.3,0z"/>
<g>
	<polygon class="st1" points="335.8,43 290.7,79 377.5,79 	"/>
	<polyline class="st2" points="364.5,79 364.5,119.3 386.2,290.4 286.1,290.4 307.2,120.5 307.2,79 	"/>
	<line class="st2" x1="307.2" y1="118" x2="364.5" y2="118"/>
	<line class="st2" x1="296.6" y1="207.7" x2="368.8" y2="161.3"/>
	<line class="st2" x1="293.8" y1="237" x2="372.2" y2="186.9"/>
	<line class="st2" x1="295.7" y1="99.1" x2="373.2" y2="99.1"/>
	<line class="st2" x1="182.3" y1="240.6" x2="181.1" y2="291"/>
	<line class="st2" x1="154" y1="211.2" x2="237.2" y2="212.6"/>
	<polyline class="st2" points="262.6,240.6 262.6,288.5 181.1,291 125.8,289.2 125.8,240.6 154,211.2 182.3,240.6 262.6,240.6 
		237.2,212.6 	"/>
	<line class="st2" x1="125.8" y1="240.6" x2="182.3" y2="240.6"/>
	<rect x="220.3" y="257.2" class="st1" width="9.9" height="32.1"/>
</g>
</svg>
