<?xml version="1.0" encoding="utf-8"?>
<!-- Generator: Adobe Illustrator 21.0.1, SVG Export Plug-In . SVG Version: 6.00 Build 0)  -->
<svg version="1.1" id="rowboat" xmlns="http://www.w3.org/2000/svg" xmlns:xlink="http://www.w3.org/1999/xlink" x="0px" y="0px"
	 viewBox="0 0 512 343.7" style="enable-background:new 0 0 512 343.7;" xml:space="preserve">
<style type="text/css">
	.st0{fill:#11132E;}
</style>
<path id="boat" class="st0" d="M512,122.5c0-15.3-12.5-27.8-27.8-27.8H372.6c-0.6-3.3-1.4-6.5-2.5-9.6l28.3-28.3
	c5.2-5.2,8.1-12.1,8.1-19.5c0-7.4-2.9-14.3-8.1-19.5c-5.2-5.2-12.1-8.1-19.5-8.1c-7.4,0-14.3,2.9-19.5,8.1l-33.1,33.1
	c-1.9-0.2-3.8-0.3-5.7-0.3h-12.7c-26.2,0-47.9,19.1-52.1,44.1h-228C12.5,94.7,0,107.1,0,122.5v19.1c0,54.6,40.9,99.9,93.7,106.8
	l-2.6,2.6c-12.4,12.4-12.4,32.5,0,44.9l29.1,29.1c6.2,6.2,14.3,9.3,22.5,9.3c8.1,0,16.3-3.1,22.5-9.3l75.7-75.7h163.5
	c59.4,0,107.7-48.3,107.7-107.7V122.5z M371.6,30c1.9-1.9,4.5-3,7.3-3c2.7,0,5.3,1.1,7.3,3c1.9,1.9,3,4.5,3,7.3s-1.1,5.3-3,7.3
	l-25,25c-4.4-5.3-9.9-9.7-16.1-13L371.6,30z M331.8,69.7c6.8,2.3,12.6,6.6,16.9,12.1l-18.1,18.1l-14.5-14.5L331.8,69.7z
	 M318.4,112.2l-14.5,14.5l-14.5-14.5l14.5-14.5L318.4,112.2z M307.8,67.9h1.4l-26.8,26.8h-8.9C277.3,79.3,291.3,67.9,307.8,67.9z
	 M17.3,141.6v-19.1c0-5.8,4.7-10.5,10.5-10.5h237.2l-41.5,41.5H18.1C17.6,149.6,17.3,145.7,17.3,141.6z M30.6,188.7
	c-3.4-5.6-6.2-11.5-8.4-17.8h149c0,0-0.1,0-0.1,0.1l-17.7,17.7H30.6z M44.4,206h91.7l-26,26h-2.4C83.1,232,60.7,222.1,44.4,206z
	 M237.9,209.3c1.2,9.9,1.4,17-5,23.4l-80.1,80.1c-5.6,5.6-14.8,5.6-20.4,0l-29.1-29.1c-5.6-5.6-5.6-14.8,0-20.4l80.1-80.1
	c6.5-6.5,13.5-6.2,23.4-5c7,0.8,14.8,1.7,20.5-3.9l49.8-49.8l14.5,14.5l-49.9,49.9C236.2,194.5,237.1,202.3,237.9,209.3z M404.3,232
	H253.6c3.4-9.1,2.3-18.1,1.5-24.7c0-0.4-0.1-0.8-0.1-1.2h212.6C451.3,222.1,428.9,232,404.3,232z M481.4,188.7h-215l17.8-17.8h205.6
	C487.6,177.1,484.8,183.1,481.4,188.7z M493.9,153.5H301.6l41.5-41.5h141.1c5.8,0,10.5,4.7,10.5,10.5l0,19.1
	C494.7,145.7,494.4,149.6,493.9,153.5z"/>
<path id="line" class="st0" d="M154.3,127.3H54.9c-4.8,0-8.7,3.9-8.7,8.7c0,4.8,3.9,8.7,8.7,8.7h99.4c4.8,0,8.7-3.9,8.7-8.7
	C163,131.2,159.1,127.3,154.3,127.3z"/>
</svg>
