<?xml version="1.0" encoding="utf-8"?>
<!-- Generator: Adobe Illustrator 21.0.1, SVG Export Plug-In . SVG Version: 6.00 Build 0)  -->
<svg version="1.1" id="Layer_1" xmlns="http://www.w3.org/2000/svg" xmlns:xlink="http://www.w3.org/1999/xlink" x="0px" y="0px"
	 viewBox="0 0 512 575" style="enable-background:new 0 0 512 575;" xml:space="preserve">
<style type="text/css">
	.st0{fill:#FFFFFF;}
</style>
<g>
	<g>
		<path class="st0" d="M266.2,31.9L92.1,112.9c-8.2,3.8-14.3,11-16.9,19.7l-27.8,96.3c-3.4,11.9,0.3,24.3,9.7,32.4
			c9.4,8.1,22.2,9.8,33.5,4.6l79.9-37.1l147.3,316.8c5.7,12.2,20.3,17.6,32.5,11.9l43.7-20.3c12.2-5.7,17.6-20.3,11.9-32.5
			L258.6,187.8l65.8-30.6c14.2-6.6,20.4-23.6,13.8-37.9l-34.1-73.4C297.5,31.5,280.5,25.3,266.2,31.9z M387.4,513.2L387.4,513.2
			c0.9,2,0.1,4.5-2,5.4L341.7,539c-2,0.9-4.5,0.1-5.4-2L189,220.1l51.1-23.7L387.4,513.2L387.4,513.2z M319.8,127.9
			c1.9,4.1,0.1,8.9-3.9,10.8L82.1,247.3c-5.9,2.7-10.4-0.6-11.7-1.6c-1.3-1.1-5.2-5-3.3-11.2l27.8-96.3c0.9-3.1,3.1-5.5,5.9-6.8
			l174.1-80.9c4.1-1.9,8.9-0.1,10.8,3.9L319.8,127.9L319.8,127.9z"/>
	</g>
</g>
<g>
	<g>
		<path class="st0" d="M266.5,66.7l-50.4,23.4c-5.1,2.4-7.3,8.5-4.9,13.5c2.4,5.1,8.5,7.3,13.6,4.9l50.4-23.4
			c5.1-2.4,7.3-8.5,4.9-13.5C277.7,66.5,271.7,64.2,266.5,66.7z"/>
	</g>
</g>
<g>
	<g>
		<path class="st0" d="M186.5,103.8l-4,1.9c-5.1,2.4-7.3,8.5-4.9,13.5c2.4,5.1,8.5,7.3,13.5,4.9l4-1.9c5.1-2.4,7.3-8.5,4.9-13.5
			C197.7,103.7,191.6,101.5,186.5,103.8z"/>
	</g>
</g>
</svg>
